<svg width="128" height="22" viewBox="0 0 128 22" fill="none" xmlns="http://www.w3.org/2000/svg">
<g clip-path="url(#clip0_4403_10411)">
<path fill-rule="evenodd" clip-rule="evenodd" d="M5.90765 0H0.122941L0 0.122941V17.1251L0.122941 17.248H5.90765C6.63624 17.248 7.32989 17.1839 7.98924 17.0565L9.44577 13.7992C8.44412 14.4559 7.26518 14.784 5.90765 14.784H2.46141V2.464H5.90765C7.72912 2.464 9.2303 3.05541 10.4118 4.23823C11.3986 5.225 11.9732 6.40718 12.1362 7.78347L13.7727 4.1237C13.3932 3.52633 12.9425 2.97727 12.4307 2.48859C10.7075 0.829529 8.53342 0 5.90765 0Z" fill="#222222"/>
<path fill-rule="evenodd" clip-rule="evenodd" d="M6.82223 2.28809H2.42676V15.4881H6.82223C7.51009 15.4889 8.1932 15.374 8.843 15.1484L12.682 6.56191C11.8861 4.08303 9.56317 2.28809 6.82223 2.28809Z" fill="#95F3FF"/>
<path d="M16.1346 4.03646H18.3501L18.473 4.1594L25.3655 21.1609L25.2426 21.2838H22.7805L22.6576 21.1609L21.058 17.219H13.4266L11.8264 21.1609L11.7035 21.2838H9.24208L9.11914 21.1609L16.0116 4.1594L16.1346 4.03646ZM17.2423 7.48593L14.4114 14.755H20.0732L17.2423 7.48593ZM41.4805 8.34846L41.3576 8.4714C39.6183 6.99287 37.69 6.25393 35.5729 6.25393C33.8497 6.25393 32.3731 6.87834 31.1424 8.12652C29.9117 9.37534 29.2964 10.8862 29.2964 12.6605C29.2964 14.434 29.9111 15.9456 31.1424 17.1938C32.3731 18.4426 33.8497 19.067 35.5729 19.067C37.69 19.067 39.6183 18.3274 41.3576 16.8489L41.4805 16.9718V19.8059C39.7742 21.0379 37.8052 21.6539 35.5729 21.6539C33.0623 21.6539 30.9127 20.7752 29.1236 19.0172C27.3513 17.2429 26.4655 15.1245 26.4655 12.6605C26.4655 10.1965 27.352 8.08576 29.1236 6.3277C30.9127 4.55346 33.0623 3.66699 35.5729 3.66699C37.8052 3.66699 39.7736 4.28299 41.4805 5.51499V8.34846ZM49.8431 4.03646H52.0586L52.1816 4.1594L59.0734 21.1609L58.9504 21.2838H56.489L56.3661 21.1609L54.7659 17.219H47.1351L45.5356 21.1609L45.4127 21.2838H42.9506L42.8277 21.1609L49.7195 4.1594L49.8431 4.03646ZM50.9509 7.48593L48.12 14.755H53.7817L50.9509 7.48593ZM61.0353 4.03646H66.8193C69.4451 4.03646 71.6192 4.86599 73.3423 6.52505C75.0654 8.18411 75.9273 10.2295 75.9273 12.6605C75.9273 15.0915 75.0654 17.1368 73.3423 18.7959C71.6192 20.4549 69.4451 21.2845 66.8193 21.2845H61.0346L60.9117 21.1615V4.15876L61.0346 4.03582L61.0353 4.03646ZM63.3737 6.50046V18.8205H66.8193C68.6408 18.8205 70.1426 18.229 71.3242 17.0462C72.5057 15.8634 73.0965 14.4017 73.0965 12.6605C73.0965 10.9192 72.5057 9.45752 71.3242 8.2747C70.1426 7.09187 68.6408 6.50046 66.8193 6.50046H63.3737ZM78.887 4.03646H89.225L89.348 4.1594V6.37687L89.225 6.49981H81.2254V10.5659H87.256L87.379 10.6889V12.907L87.256 13.0299H81.2254V18.8205H89.9633L90.0869 18.9434V21.1609L89.9633 21.2838H78.887L78.7634 21.1609V4.1594L78.887 4.03646ZM92.7962 4.03646H94.8881L95.1346 4.1594L101.288 11.675L107.442 4.1594L107.688 4.03646H109.781L109.904 4.1594V21.1609L109.781 21.2838H107.565L107.442 21.1609V7.73246L101.411 15.1245H101.165L95.1346 7.73246V21.1609L95.0117 21.2838H92.7962L92.6732 21.1609V4.1594L92.7962 4.03646ZM111.882 3.81387H114.712L114.959 3.93682L119.389 9.72734L123.845 3.93617L124.066 3.81323H126.897L127.02 3.93617L120.62 12.0678V20.9389L120.497 21.0619H118.281L118.158 20.9389V12.0678L111.758 3.93682L111.882 3.81387Z" fill="#222222"/>
</g>
<defs>
<clipPath id="clip0_4403_10411">
<rect width="127.471" height="22" fill="white"/>
</clipPath>
</defs>
</svg>
