<svg width="96" height="96" viewBox="0 0 96 96" fill="none" xmlns="http://www.w3.org/2000/svg">
<path d="M47.8576 0L49.4625 4.67556L54.4056 4.75725L50.4556 7.72853L51.9052 12.4553L47.8576 9.61541L43.8115 12.4553L45.2611 7.72853L41.3096 4.75725L46.2526 4.67556L47.8576 0Z" fill="#FFDD35"/>
<path d="M6.548 41.7705L8.15297 46.4477L13.096 46.5294L9.14446 49.5006L10.5941 54.2259L6.548 51.3875L2.50035 54.2259L3.95155 49.5006L0 46.5294L4.94304 46.4477L6.548 41.7705Z" fill="#FFDD35"/>
<path d="M11.9015 20.7188L13.5065 25.3943L18.4495 25.476L14.498 28.4473L15.9476 33.1741L11.9015 30.3342L7.85386 33.1741L9.30346 28.4473L5.35352 25.476L10.2965 25.3943L11.9015 20.7188Z" fill="#FFDD35"/>
<path d="M27.0871 5.7915L28.692 10.4671L33.6351 10.5488L29.6835 13.52L31.1331 18.2469L27.0871 15.4069L23.0394 18.2469L24.4906 13.52L20.5391 10.5488L25.4821 10.4671L27.0871 5.7915Z" fill="#FFDD35"/>
<path d="M83.7335 20.7188L82.1286 25.3943L77.1855 25.476L81.1371 28.4473L79.6875 33.1741L83.7335 30.3342L87.7812 33.1741L86.33 28.4473L90.2815 25.476L85.3385 25.3943L83.7335 20.7188Z" fill="#FFDD35"/>
<path d="M11.9015 62.4268L13.5065 67.1039L18.4495 67.184L14.498 70.1553L15.9476 74.8821L11.9015 72.0422L7.85386 74.8821L9.30346 70.1553L5.35352 67.184L10.2965 67.1039L11.9015 62.4268Z" fill="#FFDD35"/>
<path d="M83.7335 62.4268L82.1286 67.1039L77.1855 67.184L81.1371 70.1553L79.6875 74.8821L83.7335 72.0422L87.7812 74.8821L86.33 70.1553L90.2815 67.184L85.3385 67.1039L83.7335 62.4268Z" fill="#FFDD35"/>
<path d="M68.5469 5.7915L66.9419 10.4671L61.9989 10.5488L65.9505 13.52L64.4993 18.2469L68.5469 15.4069L72.593 18.2469L71.1434 13.52L75.0949 10.5488L70.1519 10.4671L68.5469 5.7915Z" fill="#FFDD35"/>
<path d="M27.0871 77.354L28.692 82.0296L33.6351 82.1112L29.6835 85.0825L31.1331 89.8093L27.0871 86.9694L23.0394 89.8093L24.4906 85.0825L20.5391 82.1112L25.4821 82.0296L27.0871 77.354Z" fill="#FFDD35"/>
<path d="M68.5469 77.354L66.9419 82.0296L61.9989 82.1112L65.9505 85.0825L64.4993 89.8093L68.5469 86.9694L72.593 89.8093L71.1434 85.0825L75.0949 82.1112L70.1519 82.0296L68.5469 77.354Z" fill="#FFDD35"/>
<path d="M89.4523 41.7705L91.0573 46.4477L96.0003 46.5294L92.0504 49.5006L93.5 54.2259L89.4523 51.3875L85.4062 54.2259L86.8558 49.5006L82.9043 46.5294L87.8473 46.4477L89.4523 41.7705Z" fill="#FFDD35"/>
<path d="M47.8576 83.083L49.4625 87.7586L54.4056 87.8403L50.4556 90.8115L51.9052 95.5384L47.8576 92.6984L43.8115 95.5384L45.2611 90.8115L41.3096 87.8403L46.2526 87.7586L47.8576 83.083Z" fill="#FFDD35"/>
<path d="M41.9751 41.1797V41.8652H39.8657V56.3145H41.2896C41.3774 56.3145 41.4653 56.3232 41.5532 56.3408C41.8345 56.3936 41.9751 56.6133 41.9751 57H35.3569V56.3145H37.4663V43.6318L31.481 57.1582H30.9272L25.1792 45.2402V56.3145H26.603C26.6909 56.3145 26.7788 56.3232 26.8667 56.3408C27.1479 56.3936 27.2886 56.6133 27.2886 57H22.0151V56.3145H24.1245V41.8652H22.0151V41.1797H25.9702L31.9819 53.7568L37.4663 41.1797H41.9751ZM56.2134 44.7656C56.2134 45.1523 56.1255 45.5566 55.9497 45.9785C55.4927 47.1035 54.5962 47.9033 53.2603 48.3779C53.9634 48.501 54.5962 48.7119 55.1587 49.0107C56.5474 49.749 57.2417 50.874 57.2417 52.3857C57.2417 53.2822 56.9692 54.1084 56.4243 54.8643C55.3696 56.2881 53.6997 57 51.4146 57H43.6099V56.3145H45.7192V41.8652H43.6099V41.1797H51.2563C52.3989 41.1797 53.3833 41.373 54.2095 41.7598C55.5454 42.3926 56.2134 43.3945 56.2134 44.7656ZM50.439 41.8652H48.2505V48.0615H50.439C51.0894 48.0615 51.6606 47.9121 52.1528 47.6133C53.0845 47.0684 53.5503 46.1895 53.5503 44.9766C53.5503 44.7656 53.5327 44.5547 53.4976 44.3438C53.2866 42.6914 52.2671 41.8652 50.439 41.8652ZM50.9927 48.7734H48.2505V56.3145H51.019C51.7925 56.3145 52.4604 56.0947 53.0229 55.6553C53.9546 54.917 54.4204 53.8271 54.4204 52.3857C54.4204 51.8232 54.3237 51.2959 54.1304 50.8037C53.603 49.4502 52.5571 48.7734 50.9927 48.7734ZM74.6704 57H68.6851V56.3145H70.4517L68.4741 51.1992H63.0161L61.0386 56.3145H62.3833C62.4712 56.3145 62.5591 56.3232 62.647 56.3408C62.9106 56.376 63.0425 56.5957 63.0425 57H58.3228V56.3145H59.9839L65.8638 41.1797H67.0503L73.1147 56.3145H73.9849C74.0728 56.3145 74.1606 56.3232 74.2485 56.3408C74.5298 56.376 74.6704 56.5957 74.6704 57ZM68.1577 50.4346L65.7319 44.1328L63.3062 50.4346H68.1577Z" fill="#FFDD35"/>
</svg>
