<svg width="96" height="97" viewBox="0 0 96 97" fill="none" xmlns="http://www.w3.org/2000/svg">
<path fill-rule="evenodd" clip-rule="evenodd" d="M65.735 32.3853C64.2343 31.0695 62.0758 31.0996 60.8373 31.4819C61.6487 30.4856 63.538 29.6688 64.095 29.5697C64.5191 29.7286 65.735 30.9784 65.735 32.3853ZM70.5269 26.9367C69.54 21.657 57.2697 25.1552 51.0904 22.9126C50.9719 24.4517 52.9927 26.9179 54.9256 27.8307C51.6216 30.6981 48.6552 36.4754 48.0567 43.5337C47.46 36.4754 44.4935 30.6981 41.1896 27.8307C43.1224 26.9179 45.1448 24.4517 45.0248 22.9126C38.8455 25.1552 26.5751 21.657 25.5864 26.9367C25.3784 28.054 25.916 29.757 26.4969 30.2465C26.6007 29.8924 27.1432 28.734 28.8536 28.4743C37.4985 27.1681 44.716 40.4917 38.201 45.8786C38.1018 45.9604 38.1574 46.1117 38.292 46.1117H57.8245C57.9574 46.1117 58.0135 45.9604 57.9159 45.8786C51.399 40.4917 58.6166 27.1681 67.2614 28.4743C68.9734 28.734 69.514 29.8924 69.6182 30.2464C70.199 29.757 70.7366 28.0543 70.5269 26.9367ZM72.6295 14.8187C72.4743 14.3199 77.5431 14.3075 77.5431 17.48C77.5431 19.6063 74.5112 20.6134 74.5112 22.8198C74.5112 23.8475 75.6168 24.6014 75.956 24.6014C75.1751 21.0588 78.4041 22.9126 79.276 23.5752C77.5432 18.8112 81.4442 18.8413 81.0601 16.6569C80.7929 15.1303 77.4025 15.5915 76.1753 14.8187C73.9978 13.4481 71.4218 8.11449 69.7241 13.4481C72.8889 16.3864 71.0474 20.711 67.0298 20.711C67.0298 20.711 67.0072 21.3451 67.0441 21.3955C71.8361 21.1609 73.5064 17.6391 72.6295 14.8187ZM16.7224 23.5752C17.5946 22.9126 20.8232 21.0588 20.0442 24.6014C20.3817 24.6014 21.4872 23.8475 21.4872 22.8198C21.4872 20.6134 18.4552 19.6063 18.4552 17.48C18.4552 14.3073 23.5241 14.3199 23.3687 14.8187C22.4936 17.6389 24.1642 21.161 28.956 21.3955C28.9912 21.3451 28.9688 20.711 28.9688 20.711C24.9528 20.711 23.1112 16.3861 26.2745 13.4481C24.5767 8.11449 22.0008 13.4481 19.8233 14.8187C18.5962 15.5917 15.2057 15.1303 14.9385 16.6569C14.5559 18.8413 18.4552 18.8114 16.7224 23.5752ZM30.3288 32.3852C31.8311 31.0694 33.9896 31.0994 35.2266 31.4817C34.4184 30.4855 32.5258 29.6686 31.9705 29.5695C31.5464 29.7285 30.3288 30.9782 30.3288 32.3852ZM50.3367 2.85009L47.9991 0L45.6617 2.85009L47.9993 5.84966L50.3367 2.85009ZM63.6807 11.4682L62.0183 9.44262L60.3576 11.4682L62.0183 13.4479L63.6807 11.4682ZM77.164 70.0153L75.0567 67.7852L72.9495 70.0153L75.0567 71.9714L77.164 70.0153ZM35.6424 11.4679L33.9798 9.44232L32.319 11.4679L33.9798 13.4478L35.6424 11.4679ZM30.8807 21.3952H37.0807C42.2934 21.3952 44.6391 18.1958 45.3478 15.4212H50.6519C51.3608 18.1959 53.7046 21.3953 58.9192 21.3953H65.1192C65.1192 21.3953 66.2038 19.9239 66.4756 19.1953C67.455 16.5733 66.2038 15.3505 64.3782 15.3505L62.0182 17.4893L59.6582 15.3505C57.8326 15.3505 56.5814 16.5733 57.5607 19.1953C57.6855 19.5307 57.9848 20.023 58.2678 20.4558C56.0678 20.1535 53.2598 18.6476 52.6437 15.4212C52.6437 15.4212 54.2692 12.8387 54.6774 11.7938C56.1431 8.03584 54.2711 6.49959 51.5334 6.49959L47.999 10.6545L44.4648 6.49959C41.7272 6.49959 39.8552 8.03569 41.3224 11.7938C41.729 12.8389 43.3561 15.4213 43.3561 15.4213C42.7385 18.6478 39.9305 20.1537 37.7305 20.4559C38.0153 20.0231 38.3129 19.5307 38.4377 19.1955C39.4152 16.5735 38.1673 15.3506 36.34 15.3506L33.9801 17.4894L31.6202 15.3506C29.7932 15.3506 28.545 16.5735 29.5228 19.1955C29.7947 19.924 30.8807 21.3952 30.8807 21.3952ZM94.9814 40.6141C93.7844 41.2201 86.7637 44.5092 77.7701 43.2926C77.8633 42.8636 77.9423 42.4316 78.007 41.9974C83.9926 41.2813 88.8582 40.2663 91.959 38.5414C95.4934 36.5742 97.039 31.8782 95.2549 28.3844C95.2088 28.2963 95.0808 28.2806 95.0167 28.3543C94.0393 29.4797 87.8919 36.1667 78.2071 38.2455C78.1824 37.7439 78.1365 37.2435 78.0695 36.7458C82.7733 34.0781 87.3656 31.0044 89.5528 28.1939C92.8585 23.9445 92.5543 18.5246 89.4089 15.761C89.3762 15.733 89.3331 15.7204 89.2905 15.7264C89.2478 15.7325 89.2099 15.7566 89.1863 15.7926C88.1913 17.4339 78.8762 32.4901 68.6489 38.9897C68.5241 39.0696 68.3983 39.1478 68.2714 39.2243C67.9785 39.4022 67.9466 39.783 68.1963 40.0096C69.3752 41.0782 70.1081 42.5654 70.1081 44.2164C70.1081 47.0868 67.8954 49.4741 64.9705 49.9919C63.484 50.2799 61.3383 50.1964 59.2776 49.5152C59.1848 49.4851 59.0888 49.5465 59.0888 49.6394V58.7312C59.0888 58.8774 59.3114 58.9136 59.364 58.7733C60.6167 55.4545 64.3671 54.7492 66.0072 54.7492C66.5976 58.2966 67.6519 61.235 69.0215 62.8165C71.2516 65.3864 74.8934 65.3503 76.4727 63.5735C76.4988 63.5441 76.5099 63.5044 76.503 63.4657C76.4962 63.427 76.472 63.3936 76.4374 63.375C75.5095 62.8418 70.2006 59.5825 69.1381 54.2411C69.5576 54.0963 69.9669 53.9325 70.3591 53.7388C72.0727 56.5749 74.567 59.1008 76.575 60.0655C79.9479 61.6835 83.0358 60.8965 84.4054 58.528C84.455 58.4446 84.3943 58.3407 84.2934 58.3313C82.207 58.1644 75.8038 56.3294 73.0773 51.8584C73.3895 51.5718 73.6951 51.2728 73.9799 50.9549C76.8326 53.1267 80.8664 55.0467 83.7544 55.4385C87.1334 55.8981 90.9623 54.82 91.0552 50.8904C91.0567 50.8116 90.9863 50.7471 90.9033 50.7521C89.7015 50.8242 81.7479 51.1705 76.0807 47.9174C76.2775 47.5432 76.4611 47.1621 76.631 46.7749C76.631 46.7749 85.1944 48.799 89.2519 48.1283C93.2839 47.4627 95.6456 44.4568 95.1895 40.7177C95.1767 40.6245 95.0679 40.57 94.9814 40.6141ZM19.3671 46.7753C19.5375 47.1626 19.7216 47.5437 19.919 47.9179C14.2535 51.1693 6.30308 50.8262 5.09675 50.7525C5.01194 50.7475 4.94156 50.8152 4.94307 50.8924C5.03781 54.8205 8.8649 55.8984 12.2439 55.439C15.1305 55.0471 19.1657 53.1271 22.0184 50.9554C22.3048 51.2733 22.6089 51.5722 22.9206 51.8587C20.1928 56.3294 13.7912 58.1646 11.7048 58.3315C11.604 58.3408 11.5448 58.4447 11.5929 58.5282C12.9625 60.8966 16.0505 61.6835 19.425 60.0656C21.4314 59.101 23.9257 56.5751 25.6394 53.7393C26.0328 53.9327 26.4425 54.0964 26.8601 54.2412C25.7976 59.5826 20.4889 62.8419 19.5608 63.3751C19.5265 63.3941 19.5026 63.4274 19.4958 63.466C19.4889 63.5045 19.4999 63.5441 19.5256 63.5736C21.1048 65.3505 24.7482 65.3866 26.9782 62.8166C28.3482 61.235 29.4008 58.2968 29.9912 54.7495C31.6327 54.7495 35.3815 55.4548 36.6342 58.7736C36.6887 58.9138 36.9109 58.8774 36.9109 58.7312V49.6394C36.9109 49.5466 36.8135 49.4853 36.7207 49.5152C34.66 50.1964 32.5144 50.28 31.0296 49.9919C28.1032 49.4743 25.8904 47.0869 25.8904 44.2164C25.8904 42.5652 26.6247 41.0765 27.8023 40.0079C28.0534 39.7828 28.0199 39.4019 27.7286 39.2242C27.6007 39.1476 27.4738 39.0694 27.3479 38.9896C17.1271 32.4933 7.81662 17.4481 6.81346 15.7954C6.76684 15.7183 6.65496 15.7027 6.58609 15.7624C3.44531 18.5275 3.13975 23.9459 6.44533 28.1936C8.63257 31.0041 13.2243 34.0778 17.9269 36.7455C17.8606 37.2432 17.8152 37.7435 17.791 38.2451C8.11421 36.1677 1.97177 29.4916 0.984547 28.3587C0.918982 28.2815 0.787553 28.2973 0.742891 28.3854C-1.03757 31.8808 0.507852 36.5738 4.03915 38.541C7.13992 40.2658 12.0055 41.2809 17.9911 41.997C18.0558 42.4312 18.1347 42.8631 18.2278 43.2922C9.24385 44.5072 2.22621 41.226 1.01989 40.6151C0.93026 40.5696 0.821388 40.6263 0.81026 40.7207C0.356121 44.46 2.71584 47.4627 6.74789 48.1283C10.8039 48.799 19.3671 46.7753 19.3671 46.7753ZM75.0566 74.8435L71.9366 72.3884C70.6918 73.1298 69.7766 74.3072 69.4214 75.6872C67.5447 75.9501 62.4277 74.8139 62.9251 74.0602C68.5333 66.1723 64.2436 61.4762 59.0885 61.7374V67.0349C59.0885 68.7361 57.6037 70.1146 55.7748 70.1146H52.2151C49.6614 70.1146 47.999 72.6815 47.999 72.6815C47.999 72.6815 46.3369 70.1146 43.7832 70.1146H40.2231C38.3931 70.1146 36.9114 68.7361 36.9114 67.0349V61.7375C31.7562 61.4765 27.4632 66.1726 33.073 74.0603C33.5658 74.8062 28.3065 76.0008 25.8394 75.6985C25.1898 75.0248 24.2521 74.6 23.2024 74.6C22.7562 74.6001 22.3136 74.6796 21.8952 74.8346C21.8952 74.8346 12.201 65.6564 12.0234 65.5666L12.1034 65.3809C12.6553 64.3485 11.8106 63.2233 11.2763 63.3021C11.8969 62.5577 11.926 59.2983 8.48264 58.5444C8.58339 59.1992 8.63452 60.5354 8.63452 60.5354C8.63452 60.5354 5.97706 59.0984 4.64261 60.3384C3.46998 61.7267 5.0972 64.2446 5.0972 64.2446C5.0972 64.2446 3.7372 64.2777 3.06682 64.221C4.05254 67.5543 7.35812 67.3182 8.07331 66.6604C8.0267 67.1908 9.22219 67.9461 10.2348 67.3401L10.6796 67.1246C10.7581 67.2299 20.1997 76.1503 20.1997 76.1503C19.766 76.7939 19.5597 77.584 19.702 78.4259C19.926 79.7417 21.0223 80.8322 22.4223 81.1154C23.4109 81.3139 24.3405 81.1217 25.0861 80.6858L27.5853 83.0056C27.8079 83.2071 28.1086 83.3329 28.4444 83.3094C29.0557 83.2683 29.5133 82.7726 29.467 82.2046C29.4477 81.948 29.3166 81.7279 29.1357 81.561C29.0957 81.5168 26.5901 79.1907 26.5901 79.1907C28.6571 77.7411 32.5084 76.72 35.7051 76.72C36.2667 76.72 36.5306 76.2448 36.3371 75.7787C34.889 72.2959 38.0027 69.7734 41.2235 71.8271C42.6284 72.7226 44.0556 74.4868 45.1308 77.4297C39.846 78.7094 33.2109 82.2342 31.8685 86.0823C31.3517 87.5681 33.0589 89.5933 35.1324 90.0012C35.1691 90.0093 35.2076 90.0023 35.2391 89.9819C35.2707 89.9615 35.2928 89.9293 35.3004 89.8924C36.3837 84.1481 42.5612 79.8673 45.7757 79.1402C45.9373 79.573 45.8844 79.433 46.046 79.8641C42.5453 81.5198 39.1501 85.012 38.1804 89.1634C37.7356 91.0646 39.8556 92.7785 41.606 93.2477C41.694 93.2711 41.7804 93.2098 41.7853 93.1248C42.118 87.8747 44.4364 83.4162 46.5131 81.3876C46.57 81.7841 46.6127 82.1825 46.6412 82.582C46.6412 82.582 44.5149 88.5073 44.5149 92.8305C44.5149 94.8417 47.5036 96.2456 47.9453 96.4423C48.4972 96.2456 51.4844 94.8417 51.4844 92.8305C51.4844 88.5072 49.3581 82.582 49.3581 82.582C49.3871 82.1825 49.4303 81.7841 49.4877 81.3876C51.5629 83.4162 53.8828 87.873 54.2141 93.123C54.2189 93.2081 54.3068 93.2711 54.393 93.2475C56.1452 92.7786 58.2637 91.0648 57.8204 89.1637C56.849 85.0121 53.4556 81.5201 49.9546 79.8644C50.1146 79.4331 50.0619 79.5731 50.2235 79.1404C53.4396 79.8674 59.6156 84.1479 60.6988 89.8923C60.7066 89.929 60.7287 89.9612 60.7603 89.9816C60.7918 90.002 60.8302 90.009 60.8669 90.001C62.9388 89.5935 64.6492 87.5679 64.1292 86.0825C62.7901 82.2344 56.1532 78.7095 50.8685 77.4298C51.9452 74.4869 53.3723 72.7227 54.7771 71.8272C57.9963 69.7735 61.1099 72.2964 59.6619 75.7791C59.4682 76.2448 59.7306 76.72 60.2939 76.72C63.9098 76.72 68.3641 78.0264 70.1271 79.7779C71.2537 81.4682 73.3352 82.5494 75.6841 82.3178C78.3529 82.0568 80.529 80.0516 80.8297 77.5731C81.0921 75.4012 79.969 73.4513 78.1786 72.389L75.0566 74.8435ZM52.0598 59.0223C53.1718 58.6103 54.9142 58.9438 54.855 60.549C54.8407 60.9124 55.3512 60.9124 55.3879 60.541C55.7207 58.138 54.0966 57.4453 52.3975 57.7271C52.1864 56.9008 52.0136 56.1785 51.8167 55.4625C51.6601 54.8835 51.6023 53.7958 52.2728 53.7958C52.6345 53.7958 52.4889 54.8079 52.4554 55.2437C52.4249 55.6261 52.5625 55.8575 52.873 55.8685C53.0667 55.8763 53.3083 55.6294 53.4523 55.4655C54.4252 54.3655 54.6508 52.6627 53.5115 51.8414C52.5581 51.1519 50.1707 51.665 49.5145 52.6469C49.4155 52.277 48.9418 51.6665 48.7145 51.4003C48.4939 51.1409 48.4363 50.963 48.7418 50.7349C48.8859 50.6247 49.3211 50.192 49.3211 49.745C49.3211 49.4806 49.1163 48.9926 48.4652 48.9926C47.9515 48.9926 47.3803 49.3484 47.3803 50.1415C47.3803 50.3179 47.4235 50.5069 47.537 50.7099C47.2122 50.6563 46.3307 50.6784 45.8779 50.7901L52.1387 67.971C53.9308 67.0864 55.2443 65.6858 55.2443 64.183C55.2443 62.9017 53.3577 63.3267 52.441 64.3261C52.1465 62.702 51.8841 61.2022 51.5978 59.707C51.5196 59.2947 51.7286 59.1467 52.0598 59.0223ZM43.2071 47.3516L44.5223 51.0057C43.3959 51.2734 41.5848 52.0948 41.5848 53.1821C41.5848 54.6303 44.1463 55.5728 45.628 55.4594C45.5543 55.79 45.6393 56.0843 45.8696 56.3533C45.3321 56.3533 44.3178 56.6035 43.9848 56.9623C43.1993 56.2306 41.9704 55.9646 41.3863 56.41C40.7992 56.8586 40.7818 57.6187 41.3944 58.478C41.8215 59.0728 41.9817 59.6599 41.5016 60.3491C43.2872 60.3491 42.6295 58.0279 43.3287 58.0279C43.2376 58.478 43.2935 58.9989 43.4968 59.5765C43.6313 59.9604 43.6313 60.2327 43.4009 60.6025C42.825 61.5232 41.929 63.6383 42.0505 65.5505C41.465 65.5472 41.1674 65.4039 41.3738 64.6046C41.4505 64.3069 41.2666 64.0945 41.0234 64.4613C40.7546 64.8658 40.625 65.5566 40.625 65.8523C40.625 67.5553 42.6535 67.8983 43.428 67.538C45.6681 69.7057 50.0682 69.1275 51.5417 68.4004L43.7946 47.1435C43.6361 46.7423 43.068 46.9344 43.2071 47.3516ZM42.9382 64.8612C42.7782 63.986 43.9958 62.4217 45.5447 60.9126C45.2151 61.896 45.4199 63.5911 46.0662 64.175C44.9429 64.175 43.6084 64.3858 42.9382 64.8612Z" fill="#262626"/>
</svg>
