<svg width="137" height="20" viewBox="0 0 137 20" fill="none" xmlns="http://www.w3.org/2000/svg">
<g opacity="0.6" clip-path="url(#clip0_2301_1788)">
<path fill-rule="evenodd" clip-rule="evenodd" d="M72.1122 0.56778C67.9445 0.56778 64.5667 3.94558 64.5667 8.11335C64.5667 10.1972 65.4111 12.0836 66.7731 13.4457C68.1419 14.8145 71.3563 16.7894 71.547 18.8665C71.5742 19.1797 71.799 19.4317 72.1122 19.4317C72.4255 19.4317 72.6502 19.1797 72.6775 18.8665C72.8681 16.7894 76.0825 14.8145 77.4513 13.4457C78.8134 12.0768 79.6578 10.1904 79.6578 8.11335C79.6578 3.94558 76.28 0.56778 72.1122 0.56778Z" fill="#FF4433"/>
<path fill-rule="evenodd" clip-rule="evenodd" d="M72.1128 10.7556C73.5701 10.7556 74.7551 9.57068 74.7551 8.11332C74.7551 6.65596 73.5701 5.471 72.1128 5.471C70.6554 5.471 69.4705 6.65596 69.4705 8.11332C69.4705 9.57068 70.6554 10.7556 72.1128 10.7556Z" fill="white"/>
<path fill-rule="evenodd" clip-rule="evenodd" d="M129.475 14.8963H128.351V11.6206H129.53C130.572 11.6206 131.178 12.0905 131.178 13.2687C131.178 14.4468 130.503 14.8963 129.468 14.8963H129.475ZM134.576 6.57435V16.8099H137V6.57435H134.576ZM125.934 6.57435V16.8099H129.618C132.002 16.8099 133.684 15.5909 133.684 13.1869C133.684 10.9056 132.179 9.70699 129.652 9.70699H128.351V6.57435H125.934ZM124.504 8.48798V6.57435H116.386V8.48798H119.233V16.8099H121.65V8.48798H124.497H124.504ZM111.388 15.1006C110.107 15.1006 109.447 14.0654 109.447 11.7092C109.447 9.35286 110.141 8.2973 111.503 8.2973C112.865 8.2973 113.471 9.33243 113.471 11.6887C113.471 14.045 112.777 15.1006 111.381 15.1006H111.388ZM109.276 6.57435H107.036V19.7519H109.453V15.6045C110.066 16.5171 110.958 17.0006 112 17.0006C114.357 17.0006 115.984 15.1142 115.984 11.6751C115.984 8.23601 114.398 6.37005 112.123 6.37005C110.979 6.37005 110.046 6.89442 109.399 7.88869L109.276 6.56754V6.57435ZM102.664 14.3651C102.357 14.8146 101.785 15.1823 100.934 15.1823C99.9193 15.1823 99.4086 14.6102 99.4086 13.7386C99.4086 12.574 100.246 12.1518 102.323 12.1518H102.671V14.3651H102.664ZM105.081 9.82957C105.081 7.3507 103.815 6.41772 101.254 6.41772C99.6469 6.41772 98.3871 6.92166 97.6516 7.35751V9.37329C98.2985 8.87616 99.7218 8.35178 100.968 8.35178C102.126 8.35178 102.657 8.75357 102.657 9.85681V10.422H102.269C98.5641 10.422 96.9229 11.6479 96.9229 13.7181C96.9229 15.7884 98.1828 16.9529 100.056 16.9529C101.479 16.9529 102.092 16.483 102.555 15.9995H102.657C102.677 16.2651 102.759 16.6056 102.834 16.8167H105.197C105.115 15.9859 105.075 15.1482 105.075 14.3174V9.83638L105.081 9.82957ZM93.9537 16.8099H96.8207L91.7949 9.38691L96.3508 2.67217H93.8515L89.4727 9.1758V2.67898H87.0142V16.8167H89.4727V10.1837L93.9537 16.8167V16.8099Z" fill="black"/>
<path fill-rule="evenodd" clip-rule="evenodd" d="M27.8072 14.8962H24.3885C25.0627 13.3503 25.2466 10.565 25.2466 8.79438V8.48792H27.8072V14.8962ZM36.2108 8.29043C37.4094 8.29043 37.7772 9.2847 37.7772 10.565V10.7625H34.3994C34.4607 9.14169 35.0463 8.28362 36.2108 8.28362V8.29043ZM17.9666 6.57429V10.6263H14.7318V6.57429H12.3075V16.8098H14.7318V12.5331H17.9666V16.8098H20.3842V6.57429H17.9666ZM31.3076 14.8962H30.2316V6.57429H23.1763V7.45279C23.1763 9.95209 23.0129 13.1801 22.1616 14.8962H21.4057V19.1457H23.6462V16.8098H29.0739V19.1457H31.3144V14.8962H31.3076ZM47.8697 16.8098H50.6074L46.7256 11.3754L50.1443 6.57429H47.6995L44.2876 11.3754V6.57429H41.8632V16.8098H44.2876V11.8657L47.8697 16.8098ZM40.1403 16.1152V14.1403C39.3912 14.6511 38.1245 15.0937 36.9463 15.0937C35.1757 15.0937 34.5083 14.2629 34.4062 12.5535H40.2424V11.2801C40.2424 7.71838 38.6761 6.3768 36.2517 6.3768C33.3098 6.3768 31.9001 8.63093 31.9001 11.7227C31.9001 15.2844 33.6503 17.0073 36.742 17.0073C38.2811 17.0073 39.4252 16.6055 40.1335 16.1152H40.1403ZM55.2655 17.0073C52.0307 17.0073 50.4644 15.1209 50.4644 11.7023C50.4644 8.59008 52.0715 6.3768 55.1701 6.3768C56.3687 6.3768 57.2608 6.57429 57.7716 6.86712V8.92377C57.2813 8.61732 56.3755 8.29724 55.4357 8.29724C53.849 8.29724 52.9705 9.43453 52.9705 11.6546C52.9705 13.8747 53.6855 15.1073 55.4153 15.1073C56.43 15.1073 57.1587 14.8417 57.7716 14.4195V16.3876C57.1791 16.8167 56.3891 17.0142 55.2723 17.0142L55.2655 17.0073ZM7.8196 16.8098H10.278V2.67892H6.69594C3.0934 2.67892 1.20701 4.52445 1.20701 7.24849C1.20701 9.42091 2.24214 10.708 4.09449 12.0292L0.880127 16.8098H3.54287L7.12498 11.4571L5.88554 10.6195C4.38051 9.60478 3.64502 8.808 3.64502 7.10548C3.64502 5.60045 4.70058 4.58574 6.71637 4.58574H7.81279V16.8098H7.8196Z" fill="black"/>
</g>
<defs>
<clipPath id="clip0_2301_1788">
<rect width="136.12" height="19.1908" fill="white" transform="translate(0.880005 0.567837)"/>
</clipPath>
</defs>
</svg>
