<svg width="108" height="23" viewBox="0 0 108 23" fill="none" xmlns="http://www.w3.org/2000/svg">
<g opacity="0.6" clip-path="url(#clip0_2301_1402)">
<path d="M12.2685 22.8975C18.4091 22.8975 23.3871 17.9196 23.3871 11.7791C23.3871 5.63855 18.4091 0.660652 12.2685 0.660652C6.12795 0.660652 1.15002 5.63855 1.15002 11.7791C1.15002 17.9196 6.12795 22.8975 12.2685 22.8975Z" fill="#CE2457"/>
<path fill-rule="evenodd" clip-rule="evenodd" d="M11.7208 5.09212C8.27377 5.374 5.56421 8.26088 5.56421 11.7806C5.56421 15.487 8.56889 18.4917 12.2753 18.4917C15.9817 18.4917 18.9864 15.487 18.9864 11.7806C18.9864 8.26046 16.2762 5.37336 12.8286 5.09202L12.6478 9.50003C13.7467 9.67813 14.5857 10.6314 14.5857 11.7806C14.5857 13.0566 13.5513 14.091 12.2753 14.091C10.9992 14.091 9.96481 13.0566 9.96481 11.7806C9.96481 10.6317 10.8033 9.67883 11.9016 9.50024L11.7208 5.09212Z" fill="white"/>
<path d="M12.2681 4.62185C13.0682 4.62185 13.7167 3.97331 13.7167 3.17329C13.7167 2.37327 13.0682 1.72473 12.2681 1.72473C11.4681 1.72473 10.8196 2.37327 10.8196 3.17329C10.8196 3.97331 11.4681 4.62185 12.2681 4.62185Z" fill="white"/>
<path d="M38.5294 11.7768C38.5294 13.3082 37.9692 14.545 36.9112 15.5464C35.8531 16.5477 34.546 17.0188 32.99 17.0188C31.434 17.0188 30.1891 16.5477 29.0688 15.5464C28.0729 14.545 27.5127 13.3082 27.5127 11.7768C27.5127 10.2454 28.0729 9.00853 29.131 8.00724C30.1891 7.00596 31.4962 6.53476 32.99 6.53476C34.4838 6.53476 35.8531 7.00596 36.9112 8.00724C37.9692 9.00853 38.5294 10.2454 38.5294 11.7768ZM36.4755 11.7768C36.4755 10.8933 36.1642 10.1276 35.4796 9.5386C34.8572 8.9496 33.9859 8.6551 32.99 8.6551C31.9941 8.6551 31.185 8.9496 30.5003 9.5386C29.8157 10.1276 29.5044 10.8933 29.5044 11.7768C29.5044 12.6603 29.8157 13.426 30.5003 14.015C31.1227 14.604 31.9941 14.8985 32.99 14.8985C33.9859 14.8985 34.8572 14.604 35.4796 14.015C36.1642 13.426 36.4755 12.6603 36.4755 11.7768Z" fill="black"/>
<path d="M45.1014 16.5488H42.7985V8.8329H39.2507V7.00705H48.5869V8.8329H45.1014V16.5488Z" fill="black"/>
<path d="M53.744 16.7865C52.1258 16.7865 50.8187 16.5509 49.7606 16.0797V14.1949C50.9432 14.725 52.188 14.9606 53.4328 14.9606C54.3664 14.9606 55.0511 14.8428 55.6113 14.6072C56.1092 14.3716 56.4204 14.0182 56.4204 13.6059C56.4204 12.7813 55.6736 12.4279 54.1175 12.4279H52.188V10.7198H54.1175C55.4246 10.7198 56.047 10.3665 56.047 9.6597C56.047 8.89399 55.1756 8.54056 53.4951 8.54056C52.3747 8.54056 51.2544 8.7762 50.0718 9.24742V7.4215C51.1299 7.00921 52.437 6.77362 53.993 6.77362C55.2378 6.77362 56.296 7.00921 57.1673 7.4804C57.9765 7.95163 58.4122 8.59949 58.4122 9.30627C58.4122 10.3665 57.852 11.0733 56.7939 11.4266C58.1009 11.8389 58.7856 12.6046 58.7856 13.7826C58.7856 14.6661 58.3499 15.4318 57.4163 15.9619C56.4827 16.5509 55.2378 16.7865 53.744 16.7865Z" fill="black"/>
<path d="M71.3449 11.7768C71.3449 13.3082 70.7848 14.545 69.7268 15.5464C68.6687 16.5477 67.3616 17.0188 65.8055 17.0188C64.2495 17.0188 63.0047 16.5477 61.8843 15.5464C60.8263 14.545 60.2661 13.3082 60.2661 11.7768C60.2661 10.2454 60.8263 9.00853 61.8843 8.00724C63.0047 7.00596 64.3118 6.53476 65.8678 6.53476C67.4238 6.53476 68.7309 7.00596 69.789 8.00724C70.7848 9.00853 71.3449 10.2454 71.3449 11.7768ZM69.3533 11.7768C69.3533 10.8933 69.0421 10.1276 68.3574 9.5386C67.7351 8.9496 66.8637 8.6551 65.8678 8.6551C64.8719 8.6551 64.0628 8.9496 63.3782 9.5386C62.6935 10.1276 62.3823 10.8933 62.3823 11.7768C62.3823 12.6603 62.6935 13.426 63.3782 14.015C64.0006 14.604 64.8719 14.8985 65.8678 14.8985C66.8637 14.8985 67.7351 14.604 68.3574 14.015C68.9798 13.426 69.3533 12.6603 69.3533 11.7768Z" fill="black"/>
<path d="M79.436 16.5488H73.3987V7.00705H79.1247C80.1205 7.00705 80.9293 7.24265 81.552 7.65497C82.1746 8.06726 82.4234 8.71512 82.4234 9.4219C82.4234 9.89312 82.299 10.3054 82.0495 10.6588C81.8007 11.0122 81.4894 11.3067 81.0537 11.4834C82.4234 11.8368 83.1079 12.6614 83.1079 13.9572C83.1079 14.7818 82.7965 15.4296 82.1121 15.9008C81.4894 16.3131 80.618 16.5488 79.436 16.5488ZM75.7016 8.71512V10.8355H78.5646C79.0621 10.8355 79.436 10.7177 79.7466 10.541C79.9961 10.3643 80.1823 10.0698 80.1823 9.77533C80.1823 9.06855 79.6848 8.71512 78.6264 8.71512H75.7016ZM75.7016 12.4847V14.8407H79.0003C79.5604 14.8407 79.9335 14.7228 80.2449 14.5462C80.5562 14.3105 80.6806 14.075 80.6806 13.6627C80.6806 13.3093 80.5562 13.0148 80.2449 12.7792C79.9335 12.5436 79.4978 12.4847 79.0003 12.4847H75.7016Z" fill="black"/>
<path d="M87.4012 16.5433H85.2227V7.00163H87.5256V13.4806L93.1897 7.00163H95.3682V16.5433H93.0653V10.0644L87.4012 16.5433Z" fill="black"/>
<path d="M100.067 16.5433H97.7638V7.00163H100.067V16.5433Z" fill="black"/>
<path d="M102.496 11.5966L107.11 16.4852H104.132L99.7509 11.7144L103.84 7.06134H106.701L102.496 11.5966Z" fill="black"/>
</g>
<defs>
<clipPath id="clip0_2301_1402">
<rect width="107.015" height="22.2369" fill="white" transform="translate(0.477295 0.660648)"/>
</clipPath>
</defs>
</svg>
