<svg width="30" height="30" viewBox="0 0 30 30" fill="none" xmlns="http://www.w3.org/2000/svg">
<rect width="30" height="30" rx="8" fill="#EAEAEA"/>
<g clip-path="url(#clip0_1082_6862)">
<mask id="mask0_1082_6862" style="mask-type:luminance" maskUnits="userSpaceOnUse" x="7" y="7" width="16" height="15">
<path d="M7.5 7H22.5V22H7.5V7Z" fill="white"/>
</mask>
<g mask="url(#mask0_1082_6862)">
<path fill-rule="evenodd" clip-rule="evenodd" d="M22.317 10.3082C22.4342 10.4254 22.5 10.5844 22.5 10.7501C22.5 10.9158 22.4342 11.0748 22.317 11.192L16.3795 17.1295C16.2623 17.2466 16.1034 17.3124 15.9376 17.3124C15.7719 17.3124 15.613 17.2466 15.4958 17.1295L12.8126 14.4463L8.56701 18.692C8.44913 18.8058 8.29125 18.8688 8.12738 18.8674C7.96351 18.866 7.80675 18.8002 7.69087 18.6843C7.57499 18.5685 7.50926 18.4117 7.50784 18.2478C7.50641 18.084 7.56941 17.9261 7.68326 17.8082L12.3708 13.1207C12.488 13.0035 12.6469 12.9377 12.8126 12.9377C12.9784 12.9377 13.1373 13.0035 13.2545 13.1207L15.9376 15.8038L21.4333 10.3082C21.5505 10.191 21.7094 10.1252 21.8751 10.1252C22.0409 10.1252 22.1998 10.191 22.317 10.3082Z" fill="black"/>
<path fill-rule="evenodd" clip-rule="evenodd" d="M17.5 10.75C17.5 10.5842 17.5658 10.4253 17.6831 10.3081C17.8003 10.1908 17.9592 10.125 18.125 10.125H21.875C22.0408 10.125 22.1997 10.1908 22.3169 10.3081C22.4342 10.4253 22.5 10.5842 22.5 10.75V14.5C22.5 14.6658 22.4342 14.8247 22.3169 14.9419C22.1997 15.0592 22.0408 15.125 21.875 15.125C21.7092 15.125 21.5503 15.0592 21.4331 14.9419C21.3158 14.8247 21.25 14.6658 21.25 14.5V11.375H18.125C17.9592 11.375 17.8003 11.3092 17.6831 11.1919C17.5658 11.0747 17.5 10.9158 17.5 10.75Z" fill="black"/>
</g>
</g>
<defs>
<clipPath id="clip0_1082_6862">
<rect width="15" height="15" fill="white" transform="translate(7.5 7)"/>
</clipPath>
</defs>
</svg>
