<svg width="108" height="23" viewBox="0 0 108 23" fill="none" xmlns="http://www.w3.org/2000/svg">
<g opacity="0.6" clip-path="url(#clip0_4280_19870)">
<path d="M24.5904 2.68587C23.7124 1.80789 22.6701 1.11143 21.5229 0.636273C20.3758 0.161113 19.1463 -0.0834476 17.9046 -0.0834488C16.663 -0.0834484 15.4335 0.161114 14.2864 0.636273C13.1392 1.11143 12.0969 1.80789 11.2189 2.68587C10.3409 3.56385 9.64449 4.60616 9.16933 5.7533C8.69417 6.90044 8.4496 8.12993 8.4496 9.37158C8.4496 10.6132 8.69417 11.8427 9.16933 12.9899C9.64449 14.137 10.3409 15.1793 11.2189 16.0573L17.9046 9.37158L24.5904 2.68587Z" fill="url(#paint0_linear_4280_19870)"/>
<path d="M37.414 15.8544C35.8145 15.8544 34.4768 15.301 33.401 14.1944C32.3394 13.0878 31.8086 11.7263 31.8086 10.11C31.8086 8.47921 32.3394 7.11775 33.401 6.02568C34.4768 4.91904 35.8145 4.36572 37.414 4.36572C38.4474 4.36572 39.3887 4.62054 40.238 5.13018C41.0873 5.63981 41.7243 6.32418 42.1489 7.18328L40.1743 8.36272C39.9336 7.83852 39.5656 7.43081 39.0702 7.13959C38.5889 6.83381 38.0298 6.68092 37.3928 6.68092C36.4586 6.68092 35.6729 7.00854 35.036 7.66379C34.4131 8.31903 34.1017 9.13445 34.1017 10.11C34.1017 11.0856 34.4131 11.901 35.036 12.5563C35.6729 13.2115 36.4586 13.5392 37.3928 13.5392C38.0156 13.5392 38.5748 13.3863 39.0702 13.0805C39.5798 12.7747 39.962 12.367 40.2168 11.8574L42.1914 13.015C41.7384 13.8886 41.0873 14.5803 40.238 15.0899C39.3887 15.5995 38.4474 15.8544 37.414 15.8544Z" fill="black"/>
<path d="M49.9199 4.36572C51.3779 4.36572 52.6236 4.92632 53.6569 6.04752C54.6902 7.15415 55.2069 8.50833 55.2069 10.11C55.2069 11.7263 54.6902 13.0878 53.6569 14.1944C52.6236 15.301 51.3779 15.8544 49.9199 15.8544C48.3062 15.8544 47.0677 15.2428 46.2042 14.0197V19.9387H43.9111V4.64966H46.2042V6.22225C47.0677 4.98457 48.3062 4.36572 49.9199 4.36572ZM47.1597 12.6218C47.7967 13.2771 48.5964 13.6047 49.559 13.6047C50.5215 13.6047 51.3213 13.2771 51.9583 12.6218C52.5953 11.952 52.9137 11.1147 52.9137 10.11C52.9137 9.10533 52.5953 8.27535 51.9583 7.62011C51.3213 6.9503 50.5215 6.6154 49.559 6.6154C48.5964 6.6154 47.7967 6.9503 47.1597 7.62011C46.5227 8.27535 46.2042 9.10533 46.2042 10.11C46.2042 11.1147 46.5227 11.952 47.1597 12.6218Z" fill="black"/>
<path d="M65.6934 4.64966H67.9865V15.5704H65.6934V13.9978C64.8299 15.2355 63.5913 15.8544 61.9776 15.8544C60.5196 15.8544 59.274 15.301 58.2407 14.1944C57.2073 13.0732 56.6907 11.7117 56.6907 10.11C56.6907 8.49377 57.2073 7.13231 58.2407 6.02568C59.274 4.91904 60.5196 4.36572 61.9776 4.36572C63.5913 4.36572 64.8299 4.97728 65.6934 6.20041V4.64966ZM59.9393 12.6218C60.5763 13.2771 61.376 13.6047 62.3386 13.6047C63.3011 13.6047 64.1009 13.2771 64.7379 12.6218C65.3749 11.952 65.6934 11.1147 65.6934 10.11C65.6934 9.10533 65.3749 8.27535 64.7379 7.62011C64.1009 6.9503 63.3011 6.6154 62.3386 6.6154C61.376 6.6154 60.5763 6.9503 59.9393 7.62011C59.3023 8.27535 58.9838 9.10533 58.9838 10.11C58.9838 11.1147 59.3023 11.952 59.9393 12.6218Z" fill="black"/>
<path d="M78.0058 9.95715C79.0533 10.4522 79.5771 11.2895 79.5771 12.4689C79.5771 13.3863 79.2727 14.1362 78.6641 14.7186C78.0695 15.2865 77.2132 15.5704 76.0949 15.5704H70.6593V4.64966H75.6702C76.7602 4.64966 77.6024 4.9336 78.1969 5.50148C78.8056 6.0548 79.1099 6.77557 79.1099 7.66379C79.1099 8.69762 78.7419 9.46207 78.0058 9.95715ZM75.5004 6.65908H72.8463V9.08349H75.5004C76.4346 9.08349 76.9017 8.67578 76.9017 7.86036C76.9017 7.05951 76.4346 6.65908 75.5004 6.65908ZM75.8826 13.5173C76.8451 13.5173 77.3264 13.0878 77.3264 12.2287C77.3264 11.8501 77.199 11.5589 76.9442 11.355C76.6894 11.1366 76.3355 11.0274 75.8826 11.0274H72.8463V13.5173H75.8826Z" fill="black"/>
<path d="M88.597 4.64966H90.8901V15.5704H88.597V11.224H83.7347V15.5704H81.4416V4.64966H83.7347V8.99612H88.597V4.64966Z" fill="black"/>
<path d="M101.237 4.64966H102.999V15.5704H100.749V8.62481L95.3132 15.5704H93.5508V4.64966H95.8015V11.5734L101.237 4.64966Z" fill="black"/>
<path d="M10.686 18.8615C11.564 19.7395 12.6063 20.4359 13.7534 20.9111C14.9006 21.3862 16.1301 21.6308 17.3717 21.6308C18.6134 21.6308 19.8429 21.3862 20.99 20.9111C22.1372 20.4359 23.1795 19.7395 24.0574 18.8615C24.9354 17.9835 25.6319 16.9412 26.107 15.7941C26.5822 14.6469 26.8268 13.4174 26.8268 12.1758C26.8268 10.9341 26.5822 9.70463 26.107 8.5575C25.6319 7.41036 24.9354 6.36805 24.0574 5.49006L17.3717 12.1758L10.686 18.8615Z" fill="url(#paint1_linear_4280_19870)"/>
</g>
<defs>
<linearGradient id="paint0_linear_4280_19870" x1="11.2189" y1="16.0573" x2="24.5904" y2="2.68587" gradientUnits="userSpaceOnUse">
<stop stop-color="#03E8FF"/>
<stop offset="1" stop-color="#22ABFF"/>
</linearGradient>
<linearGradient id="paint1_linear_4280_19870" x1="24.0574" y1="5.49007" x2="10.686" y2="18.8615" gradientUnits="userSpaceOnUse">
<stop stop-color="#00F800"/>
<stop offset="1" stop-color="#009900"/>
</linearGradient>
<clipPath id="clip0_4280_19870">
<rect width="107.015" height="22.2369" fill="white"/>
</clipPath>
</defs>
</svg>
