<svg width="130" height="52" viewBox="0 0 130 52" fill="none" xmlns="http://www.w3.org/2000/svg">
<path d="M63.2107 4.34825L53.4378 0.968254C53.346 0.937665 53.2389 0.937665 53.1472 0.968254L43.3742 4.34825C43.1907 4.40943 43.0684 4.57767 43.0684 4.77649C43.0684 4.97531 43.1907 5.14355 43.3742 5.20472L48.0695 6.78002L48.0542 9.01296C48.0542 9.07414 48.0542 9.15061 48.1307 9.22708C48.4213 9.60943 50.5166 10.7871 53.2695 10.7871C55.8848 10.7871 58.1484 9.70119 58.4236 9.33414C58.4848 9.25767 58.5001 9.18119 58.4848 9.13531L58.5154 6.78002L60.7178 6.0459V8.03414L60.106 9.01296C59.9531 9.25766 59.9531 9.57884 60.106 9.82355L60.9319 11.1694L61.7578 9.82355C61.9107 9.57884 61.9107 9.25766 61.7578 9.01296L61.146 8.01884V5.89296L63.226 5.18943C63.4095 5.12825 63.5319 4.96002 63.5319 4.76119C63.5166 4.57767 63.4095 4.40943 63.2107 4.34825Z" fill="#7835FF"/>
<path d="M125.366 26.4941L120.854 38.5306L116.419 26.4941H111.525L118.438 43.2871L115.318 50.46H119.937L130 26.4941H125.366Z" fill="#7835FF"/>
<path d="M97.2404 34.1563C97.8369 34.8445 98.5404 35.3492 99.351 35.6857C100.177 36.0222 101.217 36.3434 102.502 36.6492C103.74 36.9857 104.658 37.2916 105.224 37.5669C105.79 37.8422 106.08 38.2704 106.08 38.821C106.08 39.341 105.851 39.7692 105.377 40.0904C104.903 40.4269 104.26 40.5951 103.435 40.5951C102.578 40.5951 101.875 40.381 101.309 39.9375C100.743 39.5092 100.406 38.9586 100.33 38.2857H95.9404C96.0016 39.341 96.3534 40.3045 97.011 41.1763C97.6687 42.0481 98.5557 42.7363 99.6722 43.241C100.789 43.7457 102.058 44.0057 103.465 44.0057C104.826 44.0057 106.035 43.7763 107.059 43.3328C108.084 42.8892 108.879 42.2775 109.43 41.4822C109.98 40.7022 110.256 39.7998 110.256 38.8057C110.24 37.6586 109.935 36.7563 109.338 36.0528C108.742 35.3645 108.053 34.8445 107.243 34.5081C106.432 34.1716 105.407 33.8504 104.169 33.5445C102.945 33.2386 102.043 32.9328 101.462 32.6269C100.88 32.321 100.59 31.8928 100.59 31.3116C100.59 30.7916 100.804 30.3939 101.232 30.1034C101.66 29.8128 102.257 29.6751 103.052 29.6751C103.909 29.6751 104.582 29.8739 105.086 30.2869C105.591 30.6845 105.882 31.2351 105.943 31.9234H110.103C109.98 30.1798 109.307 28.8034 108.084 27.7786C107.625 27.3963 106.998 27.0904 106.417 26.8457C103.343 28.5739 99.1216 30.6845 96.4146 32.0304C96.5216 32.8104 96.7969 33.6363 97.2404 34.1563Z" fill="#7835FF"/>
<path d="M33.3873 43.7305V26.494H28.9979V28.9564C28.4167 28.1611 27.652 27.5187 26.6884 26.9987C25.7249 26.4787 24.5931 26.2188 23.3084 26.2188C21.8402 26.2188 20.5096 26.5858 19.3167 27.3046C18.1237 28.0235 17.1755 29.0635 16.4873 30.4093C15.799 31.7552 15.4473 33.2999 15.4473 35.0435C15.4473 36.8023 15.799 38.3623 16.4873 39.7235C17.1755 41.0846 18.1237 42.1399 19.3167 42.874C20.5096 43.6235 21.8249 43.9905 23.2779 43.9905C24.5626 43.9905 25.6943 43.7305 26.6884 43.1952C27.6673 42.6599 28.4473 42.0023 28.9979 41.1917V43.7152H33.3873V43.7305ZM28.3861 37.827C27.9731 38.5764 27.4073 39.1576 26.7037 39.5705C26.0002 39.9682 25.2355 40.1823 24.4402 40.1823C23.6449 40.1823 22.9108 39.9682 22.2226 39.5552C21.5343 39.1423 20.9684 38.5458 20.5402 37.7658C20.112 36.9858 19.8979 36.0835 19.8979 35.0435C19.8979 34.0035 20.112 33.1164 20.5402 32.3517C20.9684 31.6023 21.519 31.0211 22.2073 30.6235C22.8955 30.2258 23.6449 30.027 24.4402 30.027C25.2508 30.027 26.0002 30.2258 26.7037 30.6387C27.4073 31.0364 27.9731 31.6176 28.3861 32.3823C28.799 33.1317 29.0131 34.0493 29.0131 35.1046C29.0131 36.1752 28.799 37.0776 28.3861 37.827Z" fill="white"/>
<path d="M41.6918 21.998H37.333V43.731H41.6918V21.998Z" fill="white"/>
<path d="M45.6529 39.7846C46.3871 41.1305 47.4118 42.1705 48.7271 42.9046C50.0423 43.6388 51.5259 44.0058 53.1929 44.0058C55.2423 44.0058 56.9706 43.4705 58.3929 42.3999C59.8 41.3293 60.7635 39.9682 61.2529 38.3164H56.5576C55.8694 39.7082 54.7223 40.3964 53.1012 40.3964C51.9847 40.3964 51.0365 40.0446 50.2718 39.3411C49.5071 38.6376 49.0635 37.6587 48.9718 36.4199H61.5588C61.6353 35.9152 61.6812 35.3646 61.6812 34.7376C61.6812 33.0552 61.3294 31.5717 60.6106 30.2717C59.8918 28.9717 58.8823 27.9776 57.5976 27.274C56.2976 26.5705 54.8294 26.2188 53.1929 26.2188C51.4953 26.2188 49.9965 26.5858 48.6812 27.3046C47.3812 28.0235 46.3565 29.0635 45.6376 30.4093C44.9188 31.7552 44.5518 33.3152 44.5518 35.1046C44.5518 36.8787 44.9188 38.4235 45.6529 39.7846ZM50.3482 30.7764C51.0823 30.1188 51.9847 29.7976 53.0706 29.7976C54.2176 29.7976 55.1812 30.134 55.9612 30.807C56.7565 31.4799 57.1541 32.3823 57.1694 33.4987H48.9871C49.1706 32.3364 49.6141 31.434 50.3482 30.7764Z" fill="white"/>
<path d="M76.6081 43.7302H80.9669V33.6208C80.9669 31.2961 80.3399 29.4914 79.0704 28.1914C77.801 26.8914 76.1493 26.249 74.0999 26.249C73.0293 26.249 72.0352 26.4631 71.1328 26.8914C70.2305 27.3196 69.4963 27.9008 68.9152 28.6502V26.509H64.541V43.4243C64.281 43.4855 64.021 43.5467 63.761 43.6078C58.1175 44.9384 52.214 46.1773 45.7293 47.4314C37.8987 48.9302 28.6458 50.4902 19.3928 50.5973C12.6787 50.6737 7.9834 49.5726 5.79634 47.4161C5.70457 47.3243 5.61281 47.2326 5.52104 47.1408C4.77163 46.2996 4.38928 45.3208 4.3434 44.189C4.3281 43.9443 4.14457 43.7608 3.89987 43.7608C3.65516 43.7608 3.44104 43.9749 3.45634 44.2196C3.51752 45.5655 3.97634 46.7431 4.8481 47.7373C5.1234 48.0431 5.42928 48.3337 5.78104 48.609C8.25869 50.5208 12.6787 51.5149 18.7352 51.5149C18.9493 51.5149 19.1787 51.5149 19.3928 51.5149C28.7069 51.4079 38.021 49.8478 45.8975 48.3337C52.3975 47.0796 58.3163 45.8408 63.9752 44.5102C68.4869 43.4549 72.6469 42.4149 76.6081 41.3596V43.7302ZM68.8999 42.3537V34.202C68.8999 32.8408 69.2516 31.7855 69.9399 31.0514C70.6281 30.3173 71.5763 29.9502 72.7846 29.9502C73.9622 29.9502 74.8952 30.3173 75.5834 31.0514C76.2716 31.7855 76.6081 32.8408 76.6081 34.202V40.3961C74.1152 41.0537 71.561 41.7114 68.8999 42.3537Z" fill="white"/>
<path d="M89.8529 43.731V34.9675V34.0192V30.0733H93.707V26.4945H89.8529V21.998H85.4788V26.4945H83.4141V30.0733H85.4788V43.731H89.8529Z" fill="white"/>
<path d="M5.78118 43.7307H10.14V33.3613V32.0766V25.5307H15.9212V22.0283H0V25.5307H5.78118V43.7307Z" fill="white"/>
<path d="M16.6402 27.5032C21.5496 23.6644 26.9179 20.4985 31.8273 17.7761C36.3849 15.2526 40.5143 13.1726 44.4296 11.4444C44.659 11.3526 44.7508 11.0926 44.659 10.8632C44.5673 10.6338 44.292 10.542 44.0779 10.6338C40.132 12.3773 35.9873 14.4573 31.399 16.9962C26.459 19.7338 21.0449 22.9303 16.0896 26.7997C15.9826 26.8762 15.9214 27.0138 15.9214 27.1514C15.9214 27.5185 16.3496 27.7326 16.6402 27.5032Z" fill="white"/>
<path d="M109.43 24.9795C108.955 25.3007 108.466 25.6066 107.977 25.9277C108.558 25.576 109.047 25.2548 109.43 24.9795Z" fill="white"/>
<path d="M93.707 33.331C93.707 33.331 93.7226 33.331 93.7382 33.3154C93.7382 33.3154 93.7382 33.3154 93.707 33.331Z" fill="white"/>
<path d="M119.111 11.2455C117.872 8.12553 112.534 6.902 103.679 7.71259C96.0624 8.40082 86.1671 10.5879 75.5071 13.9373C75.0789 14.0749 74.7424 13.5549 75.0483 13.2185C78.673 9.18082 80.0036 5.77024 78.8412 3.46082C77.4342 0.692589 72.6165 0.371413 64.8624 2.482C64.633 2.54318 64.48 2.78788 64.5565 3.03259C64.6177 3.262 64.8624 3.39965 65.1071 3.33847C72.2953 1.36553 76.8836 1.54906 78.0612 3.85847C79.2695 6.22906 77.0365 10.3432 71.9436 15.1302C71.5918 15.4514 71.9436 16.0173 72.3871 15.8796C84.2553 11.9338 95.4047 9.34906 103.755 8.58435C112.06 7.81965 117.229 8.89024 118.285 11.5667C119.371 14.2891 117.321 17.822 112.351 21.7679C110.424 23.2973 108.084 24.8726 105.392 26.4479C102.731 28.0079 99.7024 29.5832 96.3683 31.1432C94.8542 31.862 93.2636 32.5655 91.6118 33.2691C91.4436 33.3455 91.3365 33.4985 91.3365 33.682C91.3365 34.0032 91.6577 34.2173 91.9483 34.0949C92.5447 33.8349 93.1412 33.5902 93.7224 33.3302C93.7224 33.3302 93.7377 33.3302 93.7377 33.3149C93.9212 33.2232 94.9459 32.7338 96.4142 32.0149C99.1212 30.6844 103.342 28.5585 106.417 26.8302C106.982 26.5091 107.502 26.2032 107.977 25.9279C108.466 25.622 108.955 25.3008 109.414 24.9949C110.684 24.1538 111.861 23.2973 112.901 22.4714C118.193 18.2502 120.349 14.3655 119.111 11.2455Z" fill="white"/>
</svg>
