<svg width="18" height="22" viewBox="0 0 18 22" fill="none" xmlns="http://www.w3.org/2000/svg">
<path fill-rule="evenodd" clip-rule="evenodd" d="M12 3C12 2.44772 11.5523 2 11 2H7C6.44772 2 6 2.44772 6 3V6.17157C6 6.43679 5.89464 6.69114 5.70711 6.87868L4.87868 7.70711C4.69114 7.89464 4.43679 8 4.17157 8H1C0.447715 8 0 8.44772 0 9V13C0 13.5523 0.447716 14 1 14H4.17157C4.43679 14 4.69114 14.1054 4.87868 14.2929L5.70711 15.1213C5.89464 15.3089 6 15.5632 6 15.8284V19C6 19.5523 6.44772 20 7 20H11C11.5523 20 12 19.5523 12 19V15.8284C12 15.5632 12.1054 15.3089 12.2929 15.1213L13.1213 14.2929C13.3089 14.1054 13.5632 14 13.8284 14H17C17.5523 14 18 13.5523 18 13V9C18 8.44772 17.5523 8 17 8H13.8284C13.5632 8 13.3089 7.89464 13.1213 7.70711L12.2929 6.87868C12.1054 6.69114 12 6.43679 12 6.17157V3Z" fill="black"/>
</svg>
