<svg width="18" height="22" viewBox="0 0 18 22" fill="none" xmlns="http://www.w3.org/2000/svg">
<path fill-rule="evenodd" clip-rule="evenodd" d="M6 4C6 3.44772 6.44772 3 7 3H11C11.5523 3 12 3.44772 12 4V7.17157C12 7.43679 12.1054 7.69114 12.2929 7.87868L13.1213 8.70711C13.3089 8.89464 13.5632 9 13.8284 9H17C17.5523 9 18 9.44772 18 10V14C18 14.5523 17.5523 15 17 15H13.8284C13.5632 15 13.3089 15.1054 13.1213 15.2929L12.2929 16.1213C12.1054 16.3089 12 16.5632 12 16.8284V20C12 20.5523 11.5523 21 11 21H7C6.44772 21 6 20.5523 6 20V16.8284C6 16.5632 5.89464 16.3089 5.70711 16.1213L4.87868 15.2929C4.69114 15.1054 4.43679 15 4.17157 15H1C0.447715 15 0 14.5523 0 14V10C0 9.44772 0.447716 9 1 9H4.17157C4.43679 9 4.69114 8.89464 4.87868 8.70711L5.70711 7.87868C5.89464 7.69114 6 7.43679 6 7.17157V4ZM7.12132 9.29289C7.30886 9.10536 7.56321 9 7.82843 9H10.1716C10.4368 9 10.6911 9.10536 10.8787 9.29289L11.7071 10.1213C11.8946 10.3089 12 10.5632 12 10.8284V13.1716C12 13.4368 11.8946 13.6911 11.7071 13.8787L10.8787 14.7071C10.6911 14.8946 10.4368 15 10.1716 15H7.82843C7.56321 15 7.30886 14.8946 7.12132 14.7071L6.29289 13.8787C6.10536 13.6911 6 13.4368 6 13.1716V10.8284C6 10.5632 6.10536 10.3089 6.29289 10.1213L7.12132 9.29289Z" fill="black"/>
</svg>
