<?xml version="1.0" encoding="UTF-8"?>
<svg xmlns="http://www.w3.org/2000/svg" width="155" height="60" viewBox="0 0 155 60" fill="none">
  <path d="M74.998 4.0375L63.4026 0.0272191C63.2938 -0.00907304 63.1667 -0.00907304 63.0579 0.0272191L51.4625 4.0375C51.2448 4.11009 51.0996 4.30969 51.0996 4.54559C51.0996 4.78149 51.2448 4.9811 51.4625 5.05368L57.0334 6.92273L57.0152 9.57205C57.0152 9.64464 57.0152 9.73537 57.106 9.8261C57.4507 10.2798 59.9367 11.677 63.203 11.677C66.306 11.677 68.9916 10.3886 69.3183 9.95312C69.3909 9.86239 69.409 9.77166 69.3908 9.71722L69.4271 6.92273L72.0402 6.05172V8.41071L71.3143 9.57205C71.1329 9.86239 71.1329 10.2435 71.3143 10.5338L72.2942 12.1307L73.2741 10.5338C73.4556 10.2435 73.4556 9.86239 73.2741 9.57205L72.5483 8.39256V5.87026L75.0161 5.03554C75.2339 4.96295 75.3791 4.76334 75.3791 4.52745C75.3609 4.30969 75.2339 4.11009 74.998 4.0375Z" fill="#7835FF"></path>
  <path d="M148.743 30.313L143.39 44.5939L138.128 30.313H132.321L140.523 50.2374L136.822 58.7479H142.302L154.242 30.313H148.743Z" fill="#7835FF"></path>
  <path d="M115.373 39.4043C116.081 40.2209 116.916 40.8197 117.878 41.2189C118.858 41.6181 120.091 41.9992 121.616 42.3621C123.086 42.7613 124.174 43.1242 124.846 43.4509C125.517 43.7775 125.862 44.2856 125.862 44.9388C125.862 45.5558 125.59 46.0639 125.027 46.445C124.465 46.8442 123.703 47.0438 122.723 47.0438C121.706 47.0438 120.872 46.7897 120.2 46.2635C119.529 45.7554 119.13 45.1022 119.039 44.3037H113.831C113.904 45.5558 114.321 46.699 115.101 47.7333C115.882 48.7677 116.934 49.5842 118.259 50.1831C119.583 50.7819 121.089 51.0904 122.759 51.0904C124.374 51.0904 125.807 50.8182 127.023 50.2919C128.239 49.7657 129.183 49.0399 129.836 48.0963C130.489 47.1708 130.816 46.1002 130.816 44.9207C130.798 43.5597 130.435 42.4891 129.727 41.6544C129.019 40.8378 128.203 40.2209 127.241 39.8217C126.279 39.4224 125.063 39.0414 123.594 38.6784C122.142 38.3155 121.071 37.9526 120.382 37.5897C119.692 37.2268 119.347 36.7187 119.347 36.0291C119.347 35.4122 119.602 34.9404 120.11 34.5956C120.618 34.2508 121.325 34.0875 122.269 34.0875C123.285 34.0875 124.084 34.3234 124.682 34.8133C125.281 35.2851 125.626 35.9384 125.699 36.755H130.634C130.489 34.6863 129.691 33.0532 128.239 31.8374C127.695 31.3837 126.951 31.0208 126.261 30.7305C122.614 32.781 117.605 35.2851 114.394 36.882C114.521 37.8074 114.847 38.7873 115.373 39.4043Z" fill="#7835FF"></path>
  <path d="M39.6125 50.7636V30.313H34.4046V33.2345C33.715 32.2909 32.8077 31.5287 31.6645 30.9118C30.5213 30.2948 29.1785 29.9863 27.6542 29.9863C25.9122 29.9863 24.3335 30.4218 22.9181 31.2747C21.5027 32.1276 20.3777 33.3615 19.5611 34.9584C18.7445 36.5552 18.3271 38.388 18.3271 40.4566C18.3271 42.5434 18.7445 44.3943 19.5611 46.0093C20.3777 47.6243 21.5027 48.8764 22.9181 49.7474C24.3335 50.6366 25.8941 51.0721 27.6179 51.0721C29.1422 51.0721 30.485 50.7636 31.6645 50.1285C32.8259 49.4934 33.7513 48.7131 34.4046 47.7513V50.7454H39.6125V50.7636ZM33.6787 43.7592C33.1888 44.6484 32.5174 45.3379 31.6827 45.8278C30.8479 46.2996 29.9406 46.5537 28.997 46.5537C28.0534 46.5537 27.1824 46.2996 26.3659 45.8097C25.5493 45.3198 24.8779 44.6121 24.3698 43.6866C23.8617 42.7612 23.6077 41.6905 23.6077 40.4566C23.6077 39.2227 23.8617 38.1702 24.3698 37.2629C24.8779 36.3737 25.5311 35.6842 26.3477 35.2124C27.1643 34.7406 28.0534 34.5047 28.997 34.5047C29.9588 34.5047 30.8479 34.7406 31.6827 35.2305C32.5174 35.7023 33.1888 36.3919 33.6787 37.2992C34.1687 38.1884 34.4227 39.2771 34.4227 40.5292C34.4227 41.7994 34.1687 42.87 33.6787 43.7592Z" fill="black"></path>
  <path d="M49.4666 24.978H44.2949V50.7636H49.4666V24.978Z" fill="black"></path>
  <path d="M54.1659 46.0819C55.0369 47.6787 56.2527 48.9127 57.8133 49.7837C59.3738 50.6547 61.134 51.0902 63.1119 51.0902C65.5435 51.0902 67.594 50.4551 69.2816 49.1849C70.951 47.9146 72.0942 46.2996 72.6749 44.3399H67.104C66.2875 45.9912 64.9265 46.8077 63.003 46.8077C61.6784 46.8077 60.5533 46.3904 59.646 45.5557C58.7387 44.7209 58.2125 43.5596 58.1036 42.0898H73.0378C73.1285 41.4909 73.183 40.8377 73.183 40.0937C73.183 38.0976 72.7656 36.3375 71.9128 34.795C71.0599 33.2526 69.8622 32.0731 68.338 31.2384C66.7956 30.4037 65.0535 29.9863 63.1119 29.9863C61.0977 29.9863 59.3194 30.4218 57.7588 31.2747C56.2164 32.1276 55.0006 33.3615 54.1477 34.9584C53.2949 36.5552 52.8594 38.4061 52.8594 40.5292C52.8594 42.6341 53.2949 44.4669 54.1659 46.0819ZM59.7367 35.3939C60.6078 34.6136 61.6784 34.2325 62.9667 34.2325C64.3277 34.2325 65.4709 34.6317 66.3963 35.4302C67.3399 36.2286 67.8117 37.2992 67.8299 38.6239H58.1217C58.3395 37.2448 58.8657 36.1741 59.7367 35.3939Z" fill="black"></path>
  <path d="M90.8942 50.7639H96.0658V38.7694C96.0658 36.0112 95.3218 33.8699 93.8157 32.3275C92.3096 30.7851 90.3498 30.0229 87.9182 30.0229C86.648 30.0229 85.4685 30.277 84.3979 30.7851C83.3273 31.2932 82.4562 31.9827 81.7667 32.8719V30.3314H76.5769V50.401C76.2684 50.4736 75.9599 50.5462 75.6515 50.6187C68.9556 52.1975 61.9512 53.6673 54.2572 55.1553C44.9665 56.9336 33.9881 58.7845 23.0097 58.9115C15.0436 59.0022 9.47274 57.6957 6.87785 55.1371C6.76898 55.0282 6.6601 54.9194 6.55122 54.8105C5.66206 53.8125 5.20841 52.6511 5.15397 51.3083C5.13583 51.018 4.91808 50.8002 4.62774 50.8002C4.3374 50.8002 4.08336 51.0542 4.1015 51.3446C4.17409 52.9414 4.71847 54.3387 5.75279 55.5182C6.07942 55.8811 6.44235 56.2259 6.8597 56.5525C9.79937 58.8208 15.0436 60.0003 22.2294 60.0003C22.4835 60.0003 22.7557 60.0003 23.0097 60.0003C34.0607 59.8732 45.1116 58.0223 54.4569 56.2259C62.1689 54.7379 69.1915 53.2681 75.9055 51.6894C81.2586 50.4373 86.1943 49.2033 90.8942 47.9513V50.7639ZM81.7486 49.1308V39.4589C81.7486 37.8439 82.1659 36.5918 82.9825 35.7208C83.799 34.8498 84.9241 34.4143 86.3577 34.4143C87.7549 34.4143 88.8618 34.8498 89.6784 35.7208C90.495 36.5918 90.8942 37.8439 90.8942 39.4589V46.8081C87.9364 47.5883 84.906 48.3686 81.7486 49.1308Z" fill="black"></path>
  <path d="M106.608 50.7636V40.3659V39.2408V34.5592H111.181V30.313H106.608V24.978H101.418V30.313H98.9688V34.5592H101.418V50.7636H106.608Z" fill="black"></path>
  <path d="M6.85922 50.7634H12.0308V38.4604V36.9361V29.1696H18.8901V25.0142H0V29.1696H6.85922V50.7634Z" fill="black"></path>
  <path d="M19.7425 31.5105C25.5674 26.9558 31.9367 23.1996 37.7616 19.9696C43.1691 16.9754 48.0685 14.5076 52.7139 12.4571C52.9861 12.3482 53.095 12.0397 52.9861 11.7675C52.8772 11.4953 52.5506 11.3865 52.2966 11.4953C47.6149 13.564 42.6973 16.0319 37.2535 19.0441C31.3923 22.2922 24.9686 26.0848 19.0893 30.6757C18.9622 30.7665 18.8896 30.9298 18.8896 31.0931C18.8896 31.5286 19.3977 31.7826 19.7425 31.5105Z" fill="black"></path>
  <path d="M129.835 28.5166C129.273 28.8977 128.692 29.2606 128.111 29.6417C128.801 29.2243 129.382 28.8432 129.835 28.5166Z" fill="black"></path>
  <path d="M111.181 38.4251C111.181 38.4251 111.199 38.4251 111.218 38.4063C111.218 38.4062 111.218 38.4063 111.181 38.4251Z" fill="black"></path>
  <path d="M141.322 12.2216C139.852 8.5198 133.519 7.06811 123.013 8.02985C113.976 8.84643 102.235 11.4413 89.5875 15.4153C89.0794 15.5786 88.6802 14.9617 89.0431 14.5624C93.3437 9.77188 94.9224 5.7253 93.5433 2.98525C91.8739 -0.299193 86.1579 -0.68026 76.9578 1.8239C76.6856 1.89648 76.5042 2.18682 76.5949 2.47716C76.6675 2.74935 76.9578 2.91266 77.2482 2.84008C85.7768 0.499234 91.2206 0.716987 92.6179 3.45704C94.0514 6.26969 91.4021 11.151 85.3594 16.8307C84.9421 17.2118 85.3594 17.8832 85.8857 17.7199C99.967 13.0382 113.196 9.97148 123.103 9.06418C132.957 8.15688 139.09 9.4271 140.342 12.6027C141.63 15.8327 139.199 20.0244 133.301 24.7061C131.015 26.5207 128.239 28.3897 125.045 30.2588C121.887 32.1097 118.295 33.9787 114.339 35.8296C112.542 36.6825 110.655 37.5172 108.695 38.3519C108.496 38.4427 108.369 38.6241 108.369 38.8419C108.369 39.223 108.75 39.477 109.095 39.3318C109.802 39.0233 110.51 38.733 111.199 38.4245C111.199 38.4245 111.218 38.4245 111.218 38.4064C111.435 38.2975 112.651 37.7168 114.393 36.864C117.605 35.2853 122.613 32.763 126.261 30.7124C126.932 30.3314 127.549 29.9685 128.112 29.6418C128.692 29.2789 129.273 28.8978 129.817 28.5349C131.323 27.5369 132.721 26.5207 133.955 25.5408C140.233 20.5325 142.792 15.9234 141.322 12.2216Z" fill="black"></path>
</svg>
