<?xml version="1.0" encoding="UTF-8"?>
<svg xmlns="http://www.w3.org/2000/svg" width="24" height="24" viewBox="0 0 24 24" fill="none">
  <path d="M21.2109 4.66212C21.7733 5.39912 22.2495 6.19982 22.6298 7.04813L11.8437 15.1061L7.33594 12.2424V8.79711L11.8437 11.6609L21.2109 4.66212Z" fill="#797979"></path>
  <path d="M2.73556 11.9997C2.73556 11.8451 2.73928 11.6915 2.74672 11.5388L0.0148781 11.4031C0.00557979 11.601 3.3013e-06 11.8008 3.3013e-06 12.0025C-0.00115902 13.5779 0.304613 15.1381 0.899786 16.5934C1.49495 18.0489 2.36781 19.3708 3.46827 20.4836L5.40603 18.5207C4.55894 17.6656 3.88693 16.6493 3.42864 15.5303C2.97035 14.4112 2.73481 13.2113 2.73556 11.9997Z" fill="#797979"></path>
  <path d="M11.8419 2.77219C11.9944 2.77219 12.1459 2.77785 12.2965 2.78538L12.4332 0.0158372C12.2374 0.00641377 12.0402 0.00170263 11.8419 0.00170263C10.2866 -0.000219524 8.74635 0.30922 7.30945 0.912253C5.87254 1.51529 4.56733 2.40004 3.46875 3.51571L5.40651 5.47955C6.25023 4.62077 7.25313 3.93947 8.35754 3.47485C9.46196 3.01023 10.6461 2.77143 11.8419 2.77219Z" fill="#797979"></path>
  <path d="M11.8423 21.2279C11.6898 21.2279 11.5382 21.2279 11.3867 21.2157L11.25 23.9843C11.4465 23.9943 11.6439 23.9994 11.8423 23.9994C13.3969 24.001 14.9364 23.6914 16.3726 23.0882C17.8087 22.485 19.1131 21.6001 20.2108 20.4844L18.2768 18.5215C17.4329 19.3799 16.4301 20.0608 15.3259 20.5252C14.2217 20.9897 13.0378 21.2285 11.8423 21.2279Z" fill="#797979"></path>
  <path d="M16.9743 4.38191L19.2766 2.66214C17.1723 0.935255 14.5456 -0.00479364 11.8379 1.83827e-05V2.77145C13.6714 2.76914 15.4624 3.3307 16.9743 4.38191Z" fill="#797979"></path>
  <path d="M23.6815 12.0001C23.683 11.2791 23.6208 10.5594 23.4955 9.84967L20.9469 11.7532C20.9469 11.8352 20.9469 11.9172 20.9469 12.0001C20.9476 13.2895 20.6809 14.5646 20.1642 15.7429C19.6474 16.9211 18.8921 17.9761 17.9473 18.8396L19.7856 20.8987C21.0139 19.7748 21.9955 18.4019 22.6666 16.869C23.3379 15.336 23.6836 13.6772 23.6815 12.0001Z" fill="#797979"></path>
  <path d="M11.8409 21.2282C10.5686 21.2286 9.31029 20.9582 8.14754 20.4346C6.98485 19.9109 5.94362 19.1456 5.09129 18.1882L3.06055 20.0503C4.16933 21.2953 5.52395 22.2903 7.03657 22.9707C8.54919 23.651 10.186 24.0016 11.8409 23.9996V21.2282Z" fill="#797979"></path>
  <path d="M5.7352 5.16005L3.89785 3.10103C2.66915 4.22465 1.68721 5.59747 1.01571 7.13045C0.344218 8.66341 -0.00183072 10.3223 7.2835e-06 11.9996H2.73557C2.735 10.7102 3.00174 9.43508 3.51847 8.25685C4.03521 7.07866 4.79043 6.02359 5.7352 5.16005Z" fill="#797979"></path>
</svg>
