<?xml version="1.0" encoding="UTF-8"?>
<svg xmlns="http://www.w3.org/2000/svg" width="24" height="24" viewBox="0 0 24 24" fill="none">
  <path d="M0 0H24V24H0V0Z" fill="#797979"></path>
  <path d="M4.19922 5.88V18.12H6.41922V7.8H9.11922V18.12H11.3392V5.88H4.19922ZM20.3392 13.98C20.2792 12.6 19.7992 9.9 16.3192 9.9L16.2592 9.84H15.2392V7.86H19.1392V5.88H13.1392V18.12H16.4992C17.0392 18.12 17.5792 18 18.0592 17.82C18.5392 17.64 18.9592 17.28 19.3192 16.92C19.6792 16.5 19.9792 16.08 20.1592 15.54C20.3392 15.06 20.3992 14.52 20.3392 13.98ZM16.0192 16.14C15.7792 16.14 15.2392 16.02 15.2392 16.02V11.7H15.6592C16.7992 11.7 18.0592 11.58 18.0592 13.86C18.0592 16.02 16.6792 16.14 16.0192 16.14Z" fill="#313131"></path>
</svg>
