<?xml version="1.0" encoding="UTF-8"?>
<svg xmlns="http://www.w3.org/2000/svg" width="216" height="56" viewBox="0 0 216 56" fill="none">
  <path d="M72.98 25V14.92H79.28V15.907H74.009V25H72.98ZM82.4397 25.21C81.6884 25.21 81.0467 25.0397 80.5147 24.699C79.9827 24.3583 79.5744 23.887 79.2897 23.285C79.0051 22.683 78.8627 21.9923 78.8627 21.213C78.8627 20.4197 79.0074 19.7243 79.2967 19.127C79.5861 18.5297 79.9967 18.0653 80.5287 17.734C81.0654 17.398 81.7024 17.23 82.4397 17.23C83.1957 17.23 83.8397 17.4003 84.3717 17.741C84.9084 18.077 85.3167 18.546 85.5967 19.148C85.8814 19.7453 86.0237 20.4337 86.0237 21.213C86.0237 22.0063 85.8814 22.704 85.5967 23.306C85.3121 23.9033 84.9014 24.37 84.3647 24.706C83.8281 25.042 83.1864 25.21 82.4397 25.21ZM82.4397 24.223C83.2797 24.223 83.9051 23.9453 84.3157 23.39C84.7264 22.83 84.9317 22.1043 84.9317 21.213C84.9317 20.2983 84.7241 19.5703 84.3087 19.029C83.8981 18.4877 83.2751 18.217 82.4397 18.217C81.8751 18.217 81.4084 18.3453 81.0397 18.602C80.6757 18.854 80.4027 19.2063 80.2207 19.659C80.0434 20.107 79.9547 20.625 79.9547 21.213C79.9547 22.123 80.1647 22.8533 80.5847 23.404C81.0047 23.95 81.6231 24.223 82.4397 24.223ZM90.7039 25.21C89.9432 25.21 89.2992 25.0397 88.7719 24.699C88.2446 24.3583 87.8432 23.8893 87.5679 23.292C87.2972 22.69 87.1572 21.9993 87.1479 21.22C87.1572 20.4267 87.3019 19.7313 87.5819 19.134C87.8619 18.532 88.2656 18.0653 88.7929 17.734C89.3202 17.398 89.9596 17.23 90.7109 17.23C91.4762 17.23 92.1412 17.4167 92.7059 17.79C93.2752 18.1633 93.6649 18.6743 93.8749 19.323L92.8669 19.645C92.6896 19.1923 92.4072 18.8423 92.0199 18.595C91.6372 18.343 91.1986 18.217 90.7039 18.217C90.1486 18.217 89.6889 18.3453 89.3249 18.602C88.9609 18.854 88.6902 19.2063 88.5129 19.659C88.3356 20.1117 88.2446 20.632 88.2399 21.22C88.2492 22.1253 88.4592 22.8533 88.8699 23.404C89.2806 23.95 89.8919 24.223 90.7039 24.223C91.2172 24.223 91.6536 24.1063 92.0129 23.873C92.3769 23.635 92.6522 23.2897 92.8389 22.837L93.8749 23.145C93.5949 23.817 93.1842 24.3303 92.6429 24.685C92.1016 25.035 91.4552 25.21 90.7039 25.21ZM96.1244 28.36L97.5874 24.391L97.6084 25.567L94.2974 17.44H95.3894L98.1054 24.237H97.6574L100.163 17.44H101.213L97.1534 28.36H96.1244ZM101.596 26.68V24.118C102.025 24.118 102.333 23.9803 102.52 23.705C102.706 23.425 102.858 22.9793 102.975 22.368C103.054 21.9713 103.119 21.5443 103.171 21.087C103.222 20.6297 103.266 20.107 103.304 19.519C103.341 18.9263 103.376 18.2333 103.409 17.44H108.407V24.118H109.135V26.68H108.141V25H102.583V26.68H101.596ZM103.339 24.118H107.385V18.322H104.361C104.347 18.6767 104.326 19.0523 104.298 19.449C104.274 19.8457 104.244 20.2423 104.207 20.639C104.174 21.0357 104.134 21.409 104.088 21.759C104.046 22.1043 103.994 22.4077 103.934 22.669C103.864 23.005 103.787 23.292 103.703 23.53C103.623 23.768 103.502 23.964 103.339 24.118ZM112.7 25.21C112.13 25.21 111.652 25.1073 111.265 24.902C110.882 24.6967 110.595 24.4237 110.404 24.083C110.212 23.7423 110.117 23.3713 110.117 22.97C110.117 22.5593 110.198 22.2093 110.362 21.92C110.53 21.626 110.756 21.3857 111.041 21.199C111.33 21.0123 111.664 20.87 112.042 20.772C112.424 20.6787 112.847 20.597 113.309 20.527C113.775 20.4523 114.23 20.3893 114.674 20.338C115.122 20.282 115.514 20.2283 115.85 20.177L115.486 20.401C115.5 19.6543 115.355 19.1013 115.052 18.742C114.748 18.3827 114.221 18.203 113.47 18.203C112.952 18.203 112.513 18.3197 112.154 18.553C111.799 18.7863 111.549 19.155 111.405 19.659L110.404 19.365C110.576 18.6883 110.924 18.1633 111.447 17.79C111.969 17.4167 112.648 17.23 113.484 17.23C114.174 17.23 114.76 17.3607 115.241 17.622C115.726 17.8787 116.069 18.252 116.27 18.742C116.363 18.9613 116.424 19.2063 116.452 19.477C116.48 19.7477 116.494 20.023 116.494 20.303V25H115.577V23.103L115.843 23.215C115.586 23.8637 115.187 24.3583 114.646 24.699C114.104 25.0397 113.456 25.21 112.7 25.21ZM112.819 24.321C113.299 24.321 113.719 24.2347 114.079 24.062C114.438 23.8893 114.727 23.6537 114.947 23.355C115.166 23.0517 115.308 22.711 115.374 22.333C115.43 22.0903 115.46 21.8243 115.465 21.535C115.469 21.241 115.472 21.0217 115.472 20.877L115.864 21.08C115.514 21.1267 115.133 21.1733 114.723 21.22C114.317 21.2667 113.915 21.3203 113.519 21.381C113.127 21.4417 112.772 21.514 112.455 21.598C112.24 21.6587 112.032 21.745 111.832 21.857C111.631 21.9643 111.465 22.109 111.335 22.291C111.209 22.473 111.146 22.6993 111.146 22.97C111.146 23.1893 111.199 23.4017 111.307 23.607C111.419 23.8123 111.596 23.9827 111.839 24.118C112.086 24.2533 112.413 24.321 112.819 24.321ZM121.711 25.21C121.016 25.21 120.428 25.035 119.947 24.685C119.466 24.3303 119.102 23.852 118.855 23.25C118.608 22.6433 118.484 21.9643 118.484 21.213C118.484 20.4477 118.608 19.7663 118.855 19.169C119.107 18.567 119.476 18.0933 119.961 17.748C120.446 17.4027 121.044 17.23 121.753 17.23C122.444 17.23 123.036 17.405 123.531 17.755C124.026 18.105 124.404 18.581 124.665 19.183C124.931 19.785 125.064 20.4617 125.064 21.213C125.064 21.969 124.931 22.648 124.665 23.25C124.399 23.852 124.016 24.3303 123.517 24.685C123.018 25.035 122.416 25.21 121.711 25.21ZM118.309 28.36V17.44H119.233V23.131H119.345V28.36H118.309ZM121.606 24.251C122.133 24.251 122.572 24.118 122.922 23.852C123.272 23.586 123.533 23.2243 123.706 22.767C123.883 22.305 123.972 21.787 123.972 21.213C123.972 20.6437 123.886 20.1303 123.713 19.673C123.54 19.2157 123.277 18.854 122.922 18.588C122.572 18.322 122.126 18.189 121.585 18.189C121.058 18.189 120.619 18.3173 120.269 18.574C119.924 18.8307 119.665 19.1877 119.492 19.645C119.319 20.0977 119.233 20.6203 119.233 21.213C119.233 21.7963 119.319 22.319 119.492 22.781C119.665 23.2383 119.926 23.5977 120.276 23.859C120.626 24.1203 121.069 24.251 121.606 24.251ZM129.737 25.21C128.976 25.21 128.332 25.0397 127.805 24.699C127.278 24.3583 126.876 23.8893 126.601 23.292C126.33 22.69 126.19 21.9993 126.181 21.22C126.19 20.4267 126.335 19.7313 126.615 19.134C126.895 18.532 127.299 18.0653 127.826 17.734C128.353 17.398 128.993 17.23 129.744 17.23C130.509 17.23 131.174 17.4167 131.739 17.79C132.308 18.1633 132.698 18.6743 132.908 19.323L131.9 19.645C131.723 19.1923 131.44 18.8423 131.053 18.595C130.67 18.343 130.232 18.217 129.737 18.217C129.182 18.217 128.722 18.3453 128.358 18.602C127.994 18.854 127.723 19.2063 127.546 19.659C127.369 20.1117 127.278 20.632 127.273 21.22C127.282 22.1253 127.492 22.8533 127.903 23.404C128.314 23.95 128.925 24.223 129.737 24.223C130.25 24.223 130.687 24.1063 131.046 23.873C131.41 23.635 131.685 23.2897 131.872 22.837L132.908 23.145C132.628 23.817 132.217 24.3303 131.676 24.685C131.135 25.035 130.488 25.21 129.737 25.21ZM136.226 25V18.392H133.545V17.44H139.936V18.392H137.255V25H136.226ZM141.264 25V17.44H144.379C144.538 17.44 144.729 17.4493 144.953 17.468C145.182 17.4867 145.394 17.5217 145.59 17.573C146.015 17.685 146.355 17.9137 146.612 18.259C146.873 18.6043 147.004 19.0197 147.004 19.505C147.004 19.7757 146.962 20.0183 146.878 20.233C146.799 20.443 146.684 20.625 146.535 20.779C146.465 20.8583 146.388 20.9283 146.304 20.989C146.22 21.045 146.138 21.0917 146.059 21.129C146.208 21.157 146.369 21.2223 146.542 21.325C146.813 21.4837 147.018 21.6983 147.158 21.969C147.298 22.235 147.368 22.5593 147.368 22.942C147.368 23.46 147.244 23.8823 146.997 24.209C146.75 24.5357 146.418 24.7597 146.003 24.881C145.816 24.9323 145.613 24.965 145.394 24.979C145.179 24.993 144.976 25 144.785 25H141.264ZM142.3 24.125H144.736C144.834 24.125 144.958 24.118 145.107 24.104C145.256 24.0853 145.389 24.062 145.506 24.034C145.781 23.964 145.982 23.824 146.108 23.614C146.239 23.3993 146.304 23.166 146.304 22.914C146.304 22.5827 146.206 22.312 146.01 22.102C145.819 21.8873 145.562 21.7567 145.24 21.71C145.133 21.6867 145.021 21.6727 144.904 21.668C144.787 21.6633 144.682 21.661 144.589 21.661H142.3V24.125ZM142.3 20.779H144.414C144.535 20.779 144.671 20.772 144.82 20.758C144.974 20.7393 145.107 20.709 145.219 20.667C145.462 20.583 145.639 20.4383 145.751 20.233C145.868 20.0277 145.926 19.8037 145.926 19.561C145.926 19.295 145.863 19.0617 145.737 18.861C145.616 18.6603 145.431 18.5203 145.184 18.441C145.016 18.3803 144.834 18.3453 144.638 18.336C144.447 18.3267 144.325 18.322 144.274 18.322H142.3V20.779ZM151.962 25.21C151.225 25.21 150.586 25.0467 150.044 24.72C149.508 24.3933 149.09 23.9337 148.791 23.341C148.493 22.7483 148.343 22.053 148.343 21.255C148.343 20.429 148.49 19.715 148.784 19.113C149.078 18.511 149.491 18.0467 150.023 17.72C150.56 17.3933 151.192 17.23 151.92 17.23C152.667 17.23 153.304 17.4027 153.831 17.748C154.359 18.0887 154.758 18.5787 155.028 19.218C155.299 19.8573 155.423 20.6203 155.399 21.507H154.349V21.143C154.331 20.163 154.118 19.4233 153.712 18.924C153.311 18.4247 152.723 18.175 151.948 18.175C151.136 18.175 150.513 18.4387 150.079 18.966C149.65 19.4933 149.435 20.2447 149.435 21.22C149.435 22.172 149.65 22.9117 150.079 23.439C150.513 23.9617 151.127 24.223 151.92 24.223C152.462 24.223 152.933 24.0993 153.334 23.852C153.74 23.6 154.06 23.2383 154.293 22.767L155.252 23.138C154.954 23.796 154.513 24.307 153.929 24.671C153.351 25.0303 152.695 25.21 151.962 25.21ZM149.071 21.507V20.646H154.846V21.507H149.071ZM156.946 25V17.44H157.975V20.723H162.238V17.44H163.267V25H162.238V21.71H157.975V25H156.946ZM165.217 25V17.44H166.246V20.723H170.509V17.44H171.538V25H170.509V21.71H166.246V25H165.217ZM175.659 25.21C175.089 25.21 174.611 25.1073 174.224 24.902C173.841 24.6967 173.554 24.4237 173.363 24.083C173.171 23.7423 173.076 23.3713 173.076 22.97C173.076 22.5593 173.157 22.2093 173.321 21.92C173.489 21.626 173.715 21.3857 174 21.199C174.289 21.0123 174.623 20.87 175.001 20.772C175.383 20.6787 175.806 20.597 176.268 20.527C176.734 20.4523 177.189 20.3893 177.633 20.338C178.081 20.282 178.473 20.2283 178.809 20.177L178.445 20.401C178.459 19.6543 178.314 19.1013 178.011 18.742C177.707 18.3827 177.18 18.203 176.429 18.203C175.911 18.203 175.472 18.3197 175.113 18.553C174.758 18.7863 174.508 19.155 174.364 19.659L173.363 19.365C173.535 18.6883 173.883 18.1633 174.406 17.79C174.928 17.4167 175.607 17.23 176.443 17.23C177.133 17.23 177.719 17.3607 178.2 17.622C178.685 17.8787 179.028 18.252 179.229 18.742C179.322 18.9613 179.383 19.2063 179.411 19.477C179.439 19.7477 179.453 20.023 179.453 20.303V25H178.536V23.103L178.802 23.215C178.545 23.8637 178.146 24.3583 177.605 24.699C177.063 25.0397 176.415 25.21 175.659 25.21ZM175.778 24.321C176.258 24.321 176.678 24.2347 177.038 24.062C177.397 23.8893 177.686 23.6537 177.906 23.355C178.125 23.0517 178.267 22.711 178.333 22.333C178.389 22.0903 178.419 21.8243 178.424 21.535C178.428 21.241 178.431 21.0217 178.431 20.877L178.823 21.08C178.473 21.1267 178.092 21.1733 177.682 21.22C177.276 21.2667 176.874 21.3203 176.478 21.381C176.086 21.4417 175.731 21.514 175.414 21.598C175.199 21.6587 174.991 21.745 174.791 21.857C174.59 21.9643 174.424 22.109 174.294 22.291C174.168 22.473 174.105 22.6993 174.105 22.97C174.105 23.1893 174.158 23.4017 174.266 23.607C174.378 23.8123 174.555 23.9827 174.798 24.118C175.045 24.2533 175.372 24.321 175.778 24.321ZM186.014 25V22.151H184.25C184.045 22.151 183.832 22.144 183.613 22.13C183.398 22.1113 183.198 22.0857 183.011 22.053C182.479 21.9503 182.026 21.717 181.653 21.353C181.284 20.9843 181.1 20.4757 181.1 19.827C181.1 19.1923 181.273 18.6837 181.618 18.301C181.963 17.9137 182.381 17.6617 182.871 17.545C183.095 17.4937 183.321 17.4633 183.55 17.454C183.783 17.4447 183.984 17.44 184.152 17.44H187.043L187.05 25H186.014ZM180.855 25L182.962 21.829H184.103L181.982 25H180.855ZM184.194 21.269H186.014V18.322H184.194C184.082 18.322 183.926 18.3267 183.725 18.336C183.524 18.3453 183.335 18.3757 183.158 18.427C183.004 18.4737 182.85 18.5553 182.696 18.672C182.547 18.784 182.421 18.9357 182.318 19.127C182.215 19.3137 182.164 19.5423 182.164 19.813C182.164 20.191 182.267 20.4943 182.472 20.723C182.682 20.947 182.943 21.101 183.256 21.185C183.424 21.2223 183.592 21.2457 183.76 21.255C183.928 21.2643 184.073 21.269 184.194 21.269ZM72.28 42V41.097C72.56 41.1483 72.7723 41.1367 72.917 41.062C73.0663 40.9827 73.176 40.852 73.246 40.67C73.316 40.4833 73.3743 40.2523 73.421 39.977C73.4957 39.5197 73.5633 39.0157 73.624 38.465C73.6847 37.9143 73.7383 37.3077 73.785 36.645C73.8363 35.9777 73.8877 35.2427 73.939 34.44H79.077V42H78.055V35.427H74.891C74.8583 35.9217 74.821 36.414 74.779 36.904C74.737 37.394 74.6927 37.8653 74.646 38.318C74.604 38.766 74.5573 39.179 74.506 39.557C74.4547 39.935 74.401 40.2617 74.345 40.537C74.261 40.9523 74.149 41.2837 74.009 41.531C73.8737 41.7783 73.6707 41.9417 73.4 42.021C73.1293 42.1003 72.756 42.0933 72.28 42ZM87.0387 34.44V42H86.0377V36.113L81.8937 42H81.0257V34.44H82.0267V40.278L86.1777 34.44H87.0387ZM95.4994 43.309V42H88.9964V34.44H90.0254V41.013H93.9804V34.44H95.0094V41.048H96.5284V43.309H95.4994ZM100.843 42.21C100.106 42.21 99.4664 42.0467 98.9251 41.72C98.3884 41.3933 97.9707 40.9337 97.6721 40.341C97.3734 39.7483 97.2241 39.053 97.2241 38.255C97.2241 37.429 97.3711 36.715 97.6651 36.113C97.9591 35.511 98.3721 35.0467 98.9041 34.72C99.4407 34.3933 100.073 34.23 100.801 34.23C101.548 34.23 102.185 34.4027 102.712 34.748C103.239 35.0887 103.638 35.5787 103.909 36.218C104.18 36.8573 104.303 37.6203 104.28 38.507H103.23V38.143C103.211 37.163 102.999 36.4233 102.593 35.924C102.192 35.4247 101.604 35.175 100.829 35.175C100.017 35.175 99.3941 35.4387 98.9601 35.966C98.5307 36.4933 98.3161 37.2447 98.3161 38.22C98.3161 39.172 98.5307 39.9117 98.9601 40.439C99.3941 40.9617 100.008 41.223 100.801 41.223C101.342 41.223 101.814 41.0993 102.215 40.852C102.621 40.6 102.941 40.2383 103.174 39.767L104.133 40.138C103.834 40.796 103.393 41.307 102.81 41.671C102.231 42.0303 101.576 42.21 100.843 42.21ZM97.9521 38.507V37.646H103.727V38.507H97.9521ZM105.827 42V34.44H106.856V37.723H111.119V34.44H112.148V42H111.119V38.71H106.856V42H105.827ZM116.828 42.21C116.067 42.21 115.402 42.0443 114.833 41.713C114.268 41.377 113.823 40.9127 113.496 40.32L114.322 39.795C114.597 40.2617 114.94 40.6163 115.351 40.859C115.762 41.1017 116.233 41.223 116.765 41.223C117.32 41.223 117.766 41.0947 118.102 40.838C118.438 40.5813 118.606 40.229 118.606 39.781C118.606 39.473 118.534 39.228 118.389 39.046C118.249 38.864 118.034 38.7333 117.745 38.654C117.46 38.5747 117.103 38.535 116.674 38.535H115.778V37.653H116.66C117.183 37.653 117.603 37.5597 117.92 37.373C118.242 37.1817 118.403 36.883 118.403 36.477C118.403 36.0477 118.242 35.7303 117.92 35.525C117.603 35.315 117.222 35.21 116.779 35.21C116.331 35.21 115.906 35.3033 115.505 35.49C115.108 35.672 114.775 35.9077 114.504 36.197L113.846 35.504C114.224 35.0887 114.665 34.7737 115.169 34.559C115.678 34.3397 116.24 34.23 116.856 34.23C117.341 34.23 117.78 34.3163 118.172 34.489C118.569 34.657 118.881 34.9043 119.11 35.231C119.343 35.5577 119.46 35.9497 119.46 36.407C119.46 36.8363 119.355 37.2073 119.145 37.52C118.94 37.8327 118.648 38.0917 118.27 38.297L118.214 37.912C118.541 37.9727 118.811 38.1033 119.026 38.304C119.241 38.5047 119.399 38.745 119.502 39.025C119.605 39.305 119.656 39.5897 119.656 39.879C119.656 40.3597 119.53 40.775 119.278 41.125C119.031 41.4703 118.692 41.7387 118.263 41.93C117.838 42.1167 117.36 42.21 116.828 42.21ZM127.207 34.44V42H126.206V36.113L122.062 42H121.194V34.44H122.195V40.278L126.346 34.44H127.207ZM133.91 42V39.151H132.146C131.941 39.151 131.729 39.144 131.509 39.13C131.295 39.1113 131.094 39.0857 130.907 39.053C130.375 38.9503 129.923 38.717 129.549 38.353C129.181 37.9843 128.996 37.4757 128.996 36.827C128.996 36.1923 129.169 35.6837 129.514 35.301C129.86 34.9137 130.277 34.6617 130.767 34.545C130.991 34.4937 131.218 34.4633 131.446 34.454C131.68 34.4447 131.88 34.44 132.048 34.44H134.939L134.946 42H133.91ZM128.751 42L130.858 38.829H131.999L129.878 42H128.751ZM132.09 38.269H133.91V35.322H132.09C131.978 35.322 131.822 35.3267 131.621 35.336C131.421 35.3453 131.232 35.3757 131.054 35.427C130.9 35.4737 130.746 35.5553 130.592 35.672C130.443 35.784 130.317 35.9357 130.214 36.127C130.112 36.3137 130.06 36.5423 130.06 36.813C130.06 37.191 130.163 37.4943 130.368 37.723C130.578 37.947 130.84 38.101 131.152 38.185C131.32 38.2223 131.488 38.2457 131.656 38.255C131.824 38.2643 131.969 38.269 132.09 38.269Z" fill="white"></path>
  <path opacity="0.4" d="M142 42L150 34M150 34H142M150 34V42" stroke="white"></path>
  <path fill-rule="evenodd" clip-rule="evenodd" d="M38.3454 18.8048C37.47 18.0408 36.2109 18.0582 35.4884 18.2802C35.9617 17.7017 37.0638 17.2274 37.3888 17.1699C37.6361 17.2622 38.3454 17.9879 38.3454 18.8048ZM41.1407 15.641C40.565 12.5753 33.4073 14.6066 29.8027 13.3044C29.7336 14.1981 30.9124 15.6301 32.04 16.1601C30.1126 17.8251 28.3822 21.1798 28.0331 25.2782C27.685 21.1798 25.9546 17.8251 24.0273 16.1601C25.1547 15.6301 26.3345 14.1981 26.2645 13.3044C22.6599 14.6066 15.5021 12.5753 14.9254 15.641C14.8041 16.2898 15.1177 17.2787 15.4565 17.5629C15.517 17.3573 15.8335 16.6846 16.8313 16.5338C21.8741 15.7754 26.0843 23.5118 22.2839 26.6398C22.226 26.6873 22.2585 26.7752 22.337 26.7752H33.7309C33.8085 26.7752 33.8412 26.6873 33.7843 26.6398C29.9828 23.5118 34.193 15.7754 39.2358 16.5338C40.2345 16.6846 40.5498 17.3573 40.6106 17.5628C40.9494 17.2787 41.263 16.29 41.1407 15.641ZM42.3672 8.60462C42.2767 8.31499 45.2335 8.30774 45.2335 10.1499C45.2335 11.3846 43.4649 11.9693 43.4649 13.2505C43.4649 13.8473 44.1098 14.285 44.3077 14.285C43.8521 12.228 45.7357 13.3044 46.2443 13.6891C45.2336 10.9229 47.5091 10.9404 47.2851 9.672C47.1292 8.78555 45.1514 9.05335 44.4356 8.60462C43.1654 7.80872 41.6627 4.71175 40.6724 7.80873C42.5185 9.51491 41.4443 12.026 39.1007 12.026C39.1007 12.026 39.0875 12.3942 39.109 12.4235C41.9044 12.2872 42.8787 10.2423 42.3672 8.60462ZM9.75473 13.6891C10.2635 13.3044 12.1468 12.228 11.6925 14.285C11.8893 14.285 12.5342 13.8473 12.5342 13.2505C12.5342 11.9693 10.7655 11.3846 10.7655 10.1499C10.7655 8.30766 13.7224 8.31499 13.6318 8.60462C13.1212 10.2422 14.0958 12.2873 16.891 12.4235C16.9115 12.3942 16.8985 12.026 16.8985 12.026C14.5558 12.026 13.4815 9.51474 15.3268 7.80873C14.3364 4.71175 12.8338 7.80872 11.5636 8.60462C10.8478 9.05344 8.86998 8.78555 8.71411 9.672C8.49095 10.9404 10.7655 10.923 9.75473 13.6891ZM17.6918 18.8047C18.5681 18.0407 19.8272 18.0582 20.5488 18.2801C20.0774 17.7016 18.9734 17.2273 18.6494 17.1698C18.4021 17.2621 17.6918 17.9878 17.6918 18.8047ZM29.3631 1.65493L27.9995 0L26.636 1.65493L27.9996 3.39665L29.3631 1.65493ZM37.1471 6.6591L36.1774 5.48293L35.2086 6.6591L36.1774 7.80864L37.1471 6.6591ZM45.0123 40.655L43.7831 39.3601L42.5539 40.655L43.7831 41.7908L45.0123 40.655ZM20.7914 6.65893L19.8215 5.48276L18.8528 6.65893L19.8215 7.80855L20.7914 6.65893ZM18.0137 12.4233H21.6304C24.6711 12.4233 26.0395 10.5655 26.4529 8.95442H29.547C29.9605 10.5656 31.3277 12.4234 34.3695 12.4234H37.9862C37.9862 12.4234 38.6189 11.569 38.7775 11.1459C39.3488 9.62345 38.6189 8.91338 37.5539 8.91338L36.1773 10.1553L34.8006 8.91338C33.7357 8.91338 33.0058 9.62345 33.5771 11.1459C33.6499 11.3406 33.8244 11.6265 33.9895 11.8778C32.7062 11.7023 31.0682 10.8279 30.7088 8.95442C30.7088 8.95442 31.6571 7.45491 31.8951 6.84814C32.7501 4.66608 31.6581 3.77404 30.0612 3.77404L27.9994 6.18663L25.9378 3.77404C24.3409 3.77404 23.2488 4.66599 24.1047 6.84814C24.3419 7.455 25.2911 8.95451 25.2911 8.95451C24.9308 10.828 23.2928 11.7024 22.0095 11.8779C22.1756 11.6266 22.3492 11.3406 22.422 11.146C22.9922 9.62353 22.2643 8.91347 21.1983 8.91347L19.8217 10.1554L18.4451 8.91347C17.3793 8.91347 16.6513 9.62353 17.2216 11.146C17.3802 11.5691 18.0137 12.4233 18.0137 12.4233ZM55.4058 23.5829C54.7076 23.9348 50.6122 25.8446 45.3659 25.1382C45.4202 24.8891 45.4663 24.6383 45.5041 24.3861C48.9957 23.9703 51.8339 23.3809 53.6427 22.3794C55.7045 21.2371 56.6061 18.5104 55.5654 16.4816C55.5384 16.4305 55.4638 16.4214 55.4264 16.4642C54.8562 17.1177 51.2703 21.0005 45.6208 22.2076C45.6064 21.9163 45.5796 21.6258 45.5406 21.3368C48.2844 19.7877 50.9632 18.003 52.2391 16.371C54.1675 13.9036 53.99 10.7565 52.1552 9.15176C52.1361 9.13549 52.1109 9.12818 52.0861 9.13169C52.0612 9.1352 52.0391 9.14919 52.0253 9.17009C51.4449 10.1232 46.0111 18.8657 40.0452 22.6397C39.9724 22.6861 39.899 22.7315 39.825 22.7759C39.6541 22.8792 39.6355 23.1003 39.7811 23.2319C40.4689 23.8524 40.8964 24.7159 40.8964 25.6746C40.8964 27.3413 39.6056 28.7276 37.8995 29.0282C37.0324 29.1954 35.7807 29.147 34.5786 28.7514C34.5244 28.7339 34.4685 28.7696 34.4685 28.8235V34.1028C34.4685 34.1876 34.5983 34.2087 34.629 34.1272C35.3597 32.2001 37.5474 31.7906 38.5042 31.7906C38.8486 33.8504 39.4636 35.5566 40.2626 36.4749C41.5634 37.9672 43.6878 37.9462 44.6091 36.9145C44.6243 36.8974 44.6308 36.8743 44.6268 36.8519C44.6228 36.8294 44.6086 36.81 44.5885 36.7992C44.0472 36.4896 40.9504 34.5971 40.3305 31.4955C40.5753 31.4115 40.814 31.3164 41.0428 31.2039C42.0424 32.8507 43.4974 34.3174 44.6687 34.8775C46.6363 35.8171 48.4375 35.36 49.2365 33.9848C49.2654 33.9363 49.23 33.876 49.1711 33.8706C47.9541 33.7737 44.2189 32.7081 42.6284 30.112C42.8106 29.9456 42.9888 29.772 43.1549 29.5874C44.819 30.8484 47.1721 31.9633 48.8567 32.1908C50.8278 32.4577 53.0613 31.8317 53.1155 29.5499C53.1164 29.5042 53.0754 29.4667 53.0269 29.4696C52.3259 29.5115 47.6863 29.7126 44.3804 27.8237C44.4952 27.6063 44.6023 27.3851 44.7014 27.1602C44.7014 27.1602 49.6967 28.3355 52.0636 27.9461C54.4156 27.5596 55.7933 25.8142 55.5272 23.6431C55.5198 23.5889 55.4562 23.5573 55.4058 23.5829ZM11.2975 27.1605C11.3969 27.3853 11.5043 27.6066 11.6194 27.8239C8.31454 29.7119 3.67679 29.5126 2.97311 29.4699C2.92363 29.467 2.88258 29.5063 2.88346 29.5511C2.93872 31.832 5.17119 32.4579 7.14226 32.1911C8.82613 31.9636 11.18 30.8487 12.844 29.5877C13.0112 29.7722 13.1885 29.9458 13.3704 30.1122C11.7791 32.7081 8.04489 33.7737 6.82778 33.8707C6.76901 33.8761 6.73445 33.9364 6.76252 33.9849C7.56147 35.3601 9.36279 35.8171 11.3312 34.8776C12.5017 34.3175 13.9567 32.8508 14.9563 31.2042C15.1858 31.3165 15.4248 31.4115 15.6684 31.4956C15.0486 34.5971 11.9518 36.4897 11.4104 36.7993C11.3905 36.8103 11.3765 36.8297 11.3725 36.852C11.3686 36.8744 11.3749 36.8974 11.3899 36.9146C12.3111 37.9463 14.4364 37.9673 15.7373 36.475C16.5364 35.5566 17.1505 33.8505 17.4949 31.7908C18.4524 31.7908 20.6392 32.2003 21.37 34.1274C21.4017 34.2088 21.5314 34.1876 21.5314 34.1028V28.8235C21.5314 28.7697 21.4745 28.734 21.4204 28.7514C20.2183 29.147 18.9667 29.1955 18.1006 29.0282C16.3935 28.7277 15.1027 27.3414 15.1027 25.6746C15.1027 24.7159 15.5311 23.8514 16.218 23.2309C16.3645 23.1002 16.3449 22.879 16.175 22.7758C16.1004 22.7313 16.0264 22.6859 15.9529 22.6396C9.99078 18.8675 4.5597 10.1314 3.97452 9.17175C3.94732 9.12696 3.88206 9.11788 3.84188 9.15254C2.00977 10.7581 1.83152 13.9044 3.75978 16.3708C5.03566 18.0028 7.71419 19.7876 10.4574 21.3366C10.4187 21.6256 10.3922 21.9161 10.3781 22.2073C4.73329 21.0011 1.1502 17.1245 0.574319 16.4667C0.536073 16.4219 0.459406 16.4311 0.433353 16.4822C-0.60525 18.5119 0.296247 21.2369 2.35617 22.3791C4.16496 23.3807 7.00322 23.9701 10.4948 24.3859C10.5325 24.638 10.5786 24.8888 10.6329 25.1379C5.39224 25.8435 1.29862 23.9382 0.594933 23.5835C0.542652 23.5571 0.479143 23.59 0.472651 23.6448C0.207737 25.8161 1.58424 27.5596 3.93627 27.9461C6.30225 28.3355 11.2975 27.1605 11.2975 27.1605ZM43.783 43.4585L41.963 42.0329C41.2369 42.4634 40.703 43.1471 40.4958 43.9484C39.4011 44.1011 36.4161 43.4413 36.7063 43.0036C39.9777 38.4235 37.4754 35.6967 34.4683 35.8483V38.9243C34.4683 39.9122 33.6022 40.7126 32.5353 40.7126H30.4588C28.9691 40.7126 27.9994 42.2031 27.9994 42.2031C27.9994 42.2031 27.0298 40.7126 25.5402 40.7126H23.4635C22.3959 40.7126 21.5316 39.9122 21.5316 38.9243V35.8484C18.5244 35.6968 16.0202 38.4237 19.2926 43.0037C19.5801 43.4368 16.5121 44.1305 15.073 43.955C14.6941 43.5638 14.147 43.3171 13.5348 43.3171C13.2745 43.3172 13.0163 43.3633 12.7722 43.4533C12.7722 43.4533 7.11726 38.1239 7.01366 38.0718L7.06033 37.9639C7.38226 37.3645 6.88953 36.7111 6.57787 36.7569C6.93989 36.3246 6.95682 34.432 4.94821 33.9943C5.00698 34.3745 5.0368 35.1504 5.0368 35.1504C5.0368 35.1504 3.48662 34.316 2.70819 35.036C2.02415 35.8421 2.97337 37.3042 2.97337 37.3042C2.97337 37.3042 2.18003 37.3234 1.78898 37.2905C2.36398 39.2259 4.29224 39.0888 4.70943 38.7069C4.68224 39.0149 5.37961 39.4535 5.97032 39.1016L6.22979 38.9765C6.27558 39.0376 11.7832 44.2173 11.7832 44.2173C11.5302 44.591 11.4098 45.0498 11.4928 45.5387C11.6235 46.3027 12.263 46.9359 13.0797 47.1003C13.6563 47.2156 14.1986 47.104 14.6335 46.8509L16.0914 48.1979C16.2213 48.3149 16.3967 48.3879 16.5926 48.3743C16.9492 48.3505 17.2161 48.0626 17.1891 47.7328C17.1778 47.5838 17.1014 47.456 16.9958 47.3591C16.9725 47.3334 15.5109 45.9827 15.5109 45.9827C16.7166 45.141 18.9632 44.5481 20.828 44.5481C21.1556 44.5481 21.3095 44.2722 21.1966 44.0015C20.3519 41.9792 22.1682 40.5145 24.047 41.707C24.8666 42.227 25.6991 43.2514 26.3263 44.9602C23.2435 45.7032 19.373 47.75 18.59 49.9844C18.2885 50.8471 19.2843 52.0231 20.4939 52.2599C20.5153 52.2646 20.5378 52.2606 20.5562 52.2487C20.5746 52.2369 20.5874 52.2182 20.5919 52.1968C21.2238 48.8613 24.8274 46.3756 26.7025 45.9534C26.7968 46.2047 26.7659 46.1234 26.8602 46.3738C24.8181 47.3351 22.8375 49.3629 22.2719 51.7735C22.0124 52.8774 23.2491 53.8726 24.2702 54.145C24.3215 54.1586 24.3719 54.123 24.3747 54.0737C24.5689 51.0252 25.9212 48.4363 27.1326 47.2584C27.1658 47.4886 27.1908 47.7199 27.2074 47.9519C27.2074 47.9519 25.967 51.3925 25.967 53.9028C25.967 55.0706 27.7105 55.8858 27.9681 56C28.29 55.8858 30.0326 55.0706 30.0326 53.9028C30.0326 51.3924 28.7922 47.9519 28.7922 47.9519C28.8091 47.7199 28.8344 47.4886 28.8678 47.2584C30.0784 48.4363 31.4316 51.0242 31.6249 54.0726C31.6277 54.1221 31.679 54.1586 31.7293 54.1449C32.7514 53.8727 33.9872 52.8775 33.7286 51.7737C33.1619 49.363 31.1824 47.3353 29.1402 46.3739C29.2335 46.1235 29.2027 46.2048 29.297 45.9535C31.1731 46.3757 34.7758 48.8612 35.4076 52.1967C35.4122 52.218 35.4251 52.2367 35.4435 52.2485C35.4619 52.2604 35.4843 52.2644 35.5057 52.2598C36.7143 52.0232 37.712 50.847 37.4087 49.9845C36.6275 47.7501 32.756 45.7033 29.6733 44.9603C30.3013 43.2515 31.1338 42.227 31.9533 41.7071C33.8312 40.5146 35.6474 41.9795 34.8028 44.0018C34.6898 44.2722 34.8429 44.5481 35.1715 44.5481C37.2807 44.5481 39.879 45.3067 40.9075 46.3237C41.5647 47.3052 42.7789 47.933 44.1491 47.7985C45.7058 47.6469 46.9752 46.4826 47.1507 45.0435C47.3037 43.7823 46.6486 42.6501 45.6042 42.0333L43.783 43.4585ZM30.3682 34.2718C31.0169 34.0326 32.0333 34.2262 31.9987 35.1582C31.9904 35.3693 32.2882 35.3693 32.3096 35.1536C32.5037 33.7583 31.5564 33.3561 30.5652 33.5197C30.4421 33.0399 30.3413 32.6205 30.2264 32.2047C30.135 31.8686 30.1013 31.237 30.4925 31.237C30.7035 31.237 30.6185 31.8246 30.599 32.0777C30.5812 32.2997 30.6614 32.4341 30.8426 32.4405C30.9556 32.445 31.0965 32.3017 31.1805 32.2065C31.748 31.5678 31.8796 30.5791 31.215 30.1021C30.6589 29.7018 29.2663 29.9997 28.8834 30.5699C28.8257 30.3551 28.5494 30.0006 28.4168 29.846C28.2881 29.6954 28.2545 29.5921 28.4327 29.4596C28.5168 29.3956 28.7706 29.1444 28.7706 28.8848C28.7706 28.7313 28.6512 28.448 28.2713 28.448C27.9717 28.448 27.6385 28.6546 27.6385 29.1151C27.6385 29.2175 27.6637 29.3273 27.7299 29.4452C27.5405 29.414 27.0262 29.4268 26.7621 29.4917L30.4142 39.4679C31.4596 38.9543 32.2258 38.141 32.2258 37.2684C32.2258 36.5244 31.1253 36.7712 30.5906 37.3515C30.4188 36.4085 30.2657 35.5376 30.0987 34.6694C30.0531 34.4299 30.175 34.344 30.3682 34.2718ZM25.2041 27.4951L25.9713 29.6169C25.3143 29.7723 24.2578 30.2493 24.2578 30.8807C24.2578 31.7215 25.752 32.2688 26.6163 32.203C26.5733 32.3949 26.6229 32.5658 26.7573 32.722C26.4437 32.722 25.852 32.8673 25.6578 33.0756C25.1996 32.6508 24.4827 32.4963 24.142 32.7549C23.7996 33.0154 23.7894 33.4568 24.1467 33.9557C24.3959 34.3011 24.4893 34.642 24.2093 35.0422C25.2509 35.0422 24.8672 33.6944 25.2751 33.6944C25.2219 33.9557 25.2546 34.2582 25.3732 34.5936C25.4516 34.8165 25.4516 34.9746 25.3172 35.1893C24.9812 35.724 24.4586 36.9521 24.5295 38.0624C24.1879 38.0605 24.0143 37.9773 24.1347 37.5132C24.1795 37.3403 24.0722 37.217 23.9303 37.43C23.7735 37.6649 23.6979 38.066 23.6979 38.2377C23.6979 39.2266 24.8812 39.4257 25.333 39.2165C26.6397 40.4752 29.2064 40.1395 30.066 39.7173L25.5468 27.3742C25.4544 27.1413 25.123 27.2529 25.2041 27.4951ZM25.0473 37.6622C24.9539 37.154 25.6642 36.2457 26.5677 35.3694C26.3754 35.9404 26.4949 36.9247 26.8719 37.2637C26.2167 37.2637 25.4382 37.3862 25.0473 37.6622Z" fill="#565656"></path>
</svg>
