<?xml version="1.0" encoding="UTF-8"?>
<svg xmlns="http://www.w3.org/2000/svg" width="70" height="56" viewBox="0 0 70 56" fill="none">
  <path d="M0 14C0 6.26801 6.26801 0 14 0H70V42C70 49.732 63.732 56 56 56H14C6.26801 56 0 49.732 0 42V14Z" fill="#B1EC52"></path>
  <path d="M11.6033 16.4699C11.1537 14.5041 13.115 12.7647 15.652 12.7647C17.9373 12.7647 20.2279 13.277 21.0995 16.4633H24.029V21.3257C20.3766 18.3235 12.4583 20.2072 11.6033 16.4699ZM42 15.1237H35.4008L29.1229 21.9994V8.26243H24.029V11.5909C23.8628 11.3763 23.6876 11.1631 23.4913 10.955C21.6389 8.99416 18.9703 7.99999 15.5583 7.99999C11.6124 7.99999 9.36899 9.76596 8.18159 11.2472C6.70684 13.086 6.0484 15.596 6.50407 17.6411C7.68447 22.9352 12.597 23.7807 16.2058 24.2499C19.0549 24.6205 21.7807 25.1376 21.7084 27.6772C21.6329 30.3127 18.6621 30.9607 16.7121 30.9607C11.6334 30.9607 11.462 27.2067 11.462 27.2067H6C6.0798 28.6165 6.50583 30.8796 8.24131 32.8218C10.1416 34.9497 12.9917 36.0281 16.7121 36.0281C19.566 36.0281 22.1657 35.0984 24.029 33.4474V35.7163H29.1229V29.2318L30.9252 27.2604L36.0701 35.7163H41.9982L34.5112 23.3315L42 15.1237Z" fill="#424B52"></path>
  <path d="M12.682 38.5851H14.5126L10.8774 46.287C10.4852 47.0716 10.1713 47.5816 9.55674 47.9215C9.24291 48.0915 8.69371 48.1961 8.40603 48.1961C8.00066 48.1961 7.66068 48.1177 7.30762 48L7.88298 46.4309C7.94836 46.457 8.26219 46.5485 8.40603 46.5485C8.57602 46.5485 8.71986 46.5224 8.85062 46.4439C9.17753 46.2478 9.49136 45.6332 9.53059 45.5547L6.26152 38.5851H8.06605L10.3805 43.711L12.682 38.5851ZM18.3211 40.9388H20.1125V48H18.3211V45.9078C17.798 46.2478 17.1965 46.4047 16.6343 46.4309C15.8497 46.457 15.0128 46.1562 14.4505 45.6463C13.6136 44.8748 13.496 43.9333 13.496 42.7041V40.9388H15.3005V42.7041C15.3005 43.3449 15.4051 43.9464 15.7712 44.3125C16.0197 44.574 16.3989 44.7048 16.8827 44.7048C17.2096 44.6917 17.4842 44.6002 17.7196 44.4302C17.9811 44.234 18.1642 43.9202 18.2426 43.5279C18.308 43.2141 18.3211 42.7303 18.3211 42.2465V40.9388ZM22.7531 43.018L21.1317 42.2465C21.1709 42.1941 21.2232 42.1026 21.2755 42.0372C21.9162 41.135 22.8839 40.7558 24.0477 40.7558C25.3422 40.7558 26.3883 41.1873 26.9637 42.1549C27.2383 42.6126 27.3429 43.1356 27.3429 43.5672V48H25.7868V46.797C25.656 47.1762 25.2245 47.5685 24.9107 47.7516C24.4138 48.0523 23.7992 48.1831 23.2631 48.1831C22.57 48.1831 21.8509 47.8431 21.4716 47.3985C21.1055 46.8885 20.9224 46.5355 20.9224 45.9209C20.9224 45.1625 21.3932 44.4171 22.0601 44.0248C22.8447 43.6064 23.3939 43.5933 24.4007 43.4364L25.5384 43.2795C25.473 43.0049 25.2768 42.7695 25.0153 42.6257C24.7276 42.4557 24.3746 42.3903 24.0084 42.4034C23.5508 42.4034 23.1716 42.508 22.897 42.8349C22.8447 42.8872 22.7923 42.9526 22.7531 43.018ZM25.5776 44.7048L24.27 44.9532C23.5115 45.0971 22.7139 45.2409 22.6877 45.8032C22.6616 46.2216 23.0408 46.5878 23.6161 46.5616C24.3615 46.5355 25.2638 46.1693 25.4861 45.3194C25.5645 45.0317 25.5776 44.7702 25.5776 44.7048ZM34.6737 42.5211L33.0131 43.2402C32.9738 43.1618 32.9215 43.0703 32.8692 43.0049C32.5815 42.6126 32.0977 42.4034 31.5747 42.4034C31.0647 42.4034 30.5809 42.6126 30.2932 43.0049C29.9925 43.3972 29.9009 43.9333 29.8878 44.4694C29.9009 45.0055 29.9925 45.5417 30.2932 45.934C30.5809 46.3262 31.0647 46.5224 31.5747 46.5224C32.0977 46.5224 32.5815 46.3262 32.8692 45.934C32.9215 45.8555 32.9608 45.7901 33 45.7117L34.6737 46.4309C34.5561 46.627 34.4384 46.8231 34.2815 47.0062C33.6276 47.7777 32.6077 48.2092 31.5747 48.1831C30.5417 48.2092 29.5348 47.7908 28.881 47.0062C28.2925 46.3001 28.0179 45.424 28.0179 44.4694C28.0179 43.5148 28.2925 42.6387 28.881 41.9195C29.5609 41.1088 30.5678 40.7427 31.5747 40.7427C32.6208 40.7427 33.6276 41.148 34.2815 41.9195C34.4384 42.1157 34.5691 42.3118 34.6737 42.5211ZM41.2388 40.9388V42.508H38.9243V48H37.146V42.508H34.8315V40.9388H41.2388ZM46.5347 40.9388H48.3131V48H46.5347V45.2409H43.6318V48H41.8534V40.9388H43.6318V43.4625H46.5347V40.9388ZM56.0248 40.9388V48H54.2203V43.7502L51.082 48H49.5128V40.9388H51.3173V45.0448L54.4556 40.9388H56.0248ZM63.7193 40.9388L61.5225 44.4563L63.837 48H61.8494L59.9926 45.1625H59.038V48H57.2335V40.9388H59.038V43.7895H59.9795L61.7448 40.9388H63.7193Z" fill="#424B52"></path>
</svg>
